<?xml version="1.0" encoding="utf-8"?>
<!-- Generator: Adobe Illustrator 24.2.1, SVG Export Plug-In . SVG Version: 6.00 Build 0)  -->
<svg version="1.1" id="Layer_1" xmlns="http://www.w3.org/2000/svg" xmlns:xlink="http://www.w3.org/1999/xlink" x="0px" y="0px"
	 viewBox="0 0 70 70" style="enable-background:new 0 0 70 70;" xml:space="preserve">
<style type="text/css">
	.st0{fill:#2F67B2;}
</style>
<g>
	<path class="st0" d="M35,0C15.7,0,0,15.7,0,35s15.7,35,35,35s35-15.7,35-35S54.3,0,35,0z M35,66.5C17.6,66.5,3.5,52.4,3.5,35
		C3.5,17.6,17.6,3.5,35,3.5S66.5,17.6,66.5,35C66.5,52.4,52.4,66.5,35,66.5z"/>
	<path class="st0" d="M39.8,38.8H28.6c-0.4,0-0.8-0.4-0.8-0.8V22.5h-3.4v16c0,2,1.7,3.7,3.7,3.7h11.7v6.4l8.8-8.1l-8.8-8.1V38.8z"/>
</g>
</svg>
