<?xml version="1.0" encoding="utf-8"?>
<!-- Generator: Adobe Illustrator 23.0.6, SVG Export Plug-In . SVG Version: 6.00 Build 0)  -->
<svg version="1.2" baseProfile="tiny"
	 id="svg2818" xmlns:cc="http://web.resource.org/cc/" xmlns:dc="http://purl.org/dc/elements/1.1/" xmlns:inkscape="http://www.inkscape.org/namespaces/inkscape" xmlns:rdf="http://www.w3.org/1999/02/22-rdf-syntax-ns#" xmlns:sodipodi="http://sodipodi.sourceforge.net/DTD/sodipodi-0.dtd" xmlns:svg="http://www.w3.org/2000/svg"
	 xmlns="http://www.w3.org/2000/svg" xmlns:xlink="http://www.w3.org/1999/xlink" x="0px" y="0px" viewBox="0 0 603 720"
	 xml:space="preserve">
<path id="path16570" fill="#604C3B" d="M0.8,90.2l0.1-4.7L1.2,81l0.6-4.5L2.6,72l1-4.3l1.2-4.4l1.4-4.2l1.6-4l1.8-3.9l2-3.9l2.2-3.9
	l2.3-3.6l2.5-3.6l2.7-3.3l2.8-3.3l3-3.1l3.1-3l3.3-2.9l3.4-2.7l3.5-2.4l3.7-2.4l3.8-2.1l3.9-2.1l4-1.8l4.1-1.6L64.1,4l4.3-1.2l4.4-1
	l4.4-0.7l4.5-0.6l4.6-0.3L90.9,0h421.3c49.8,0,90.2,40.3,90.2,90.2v328.6c0,166.4-134.9,301.2-301.2,301.2S0,585.2,0,418.8L0.8,90.2
	z"/>
<path id="path16572" fill="#E8D3AD" d="M583.2,90.2v-3.6l-0.3-3.6l-0.5-3.6l-0.6-3.4l-0.9-3.5L580,69l-1-3.3l-1.4-3.1l-1.4-3.1
	l-1.6-3l-1.6-3l-1.8-2.9l-2.1-2.8L567,45l-2.2-2.6l-2.2-2.4l-2.6-2.4l-2.5-2.2l-2.7-2.1l-2.7-1.9l-2.9-1.8l-3-1.8l-3.1-1.5l-3.1-1.5
	l-3.2-1.2l-3.3-1.2l-3.5-0.9l-3.3-0.7l-3.6-0.6l-3.5-0.4l-3.6-0.3l-3.8-0.1H90.9C51.7,19.2,20,51,20,90.2l-0.8,328.6
	c0,155.7,126.2,282,281.9,282c155.8,0,282.1-126.3,282.1-282V90.2z"/>
<path id="path16574" fill="#FFD659" d="M529.3,491.7l1.4-4.5l1.2-4.4l1-4.3l1.1-4.5l0.7-4.5l0.6-4.5l0.6-4.5l0.5-4.7l0.4-4.5
	l0.3-4.7l0.2-4.6l0.1-4.6l0.2-4.8l0.1-4.8v-9.6V191.9H64.6v226.4c0,25.8,4.1,50.7,11.8,73.8L529.3,491.7z"/>
<path id="path16576" fill="#FBAA29" d="M73.1,491.7h456.3l13.3-81.3c0,0-133.5-51.1-138.4-53c-8.4-3.1-19.5-4-28.3,1.2
	c-3.8,2.2-90.9,53.6-90.9,53.6l-61.6,15c0,0-40.5-11.7-45.4-13.2c-5.4-1.5-11.3-1.7-15.2,0.3c-3.9,1.8-95.8,44.3-95.8,44.3
	L73.1,491.7z"/>
<path id="path16578" fill="#FFFFFF" d="M458.5,491.7l0.6-5.1l4.9-10.6l-5.7-18.3l-59.6,4.4l-4.9,29.7H73.1
	c31,94.5,123.3,163.1,228,163.1c104.9,0,197.2-68.7,228.3-163.1H458.5z"/>
<path id="path16580" fill="#604C3B" d="M59.4,120v-2.4H62c0.5,0,1,0,1.5-0.3c0.2,0,0.4-0.2,0.5-0.3c0.1,0,0.1-0.2,0.2-0.4
	c0.1-0.6,0.1-1.3,0.1-2V92.1c0-0.7,0-1.8-1-2.1c-0.9-0.3-1.5-0.3-2.5-0.3h-1.4v-2.4h35.4l0.4,11.9h-2.6c-1.8-6-4.8-9.5-12.4-9.5
	c-1.5,0-3.2,0-4.4,0.7c-0.7,0.5-0.6,1.5-0.6,2.3v9.3c5.6,0.2,7.1-1.8,8.3-6.3h2.6v15.2h-2.6c-0.1-1.2-0.3-1.8-0.9-2.9
	c-1.2-1.9-3.3-3-6.9-3h-0.5v9.4c0,2.4,0,2.9,3,3l2.7,0.1v2.4H59.4z"/>
<path id="path16582" fill="#604C3B" d="M96.7,120v-2.4h2.8c2.3-0.3,2.2-1.3,2.2-3.1V92.6c0-0.5,0-1.1-0.1-1.5
	c-0.2-0.6-0.2-0.9-0.9-1c-0.9-0.3-1.3-0.3-2.2-0.3h-1.7v-2.4h20.8v2.4h-1.6c-1.1,0-1.9-0.1-2.8,0.6c-0.3,0.3-0.3,0.6-0.4,0.9
	c-0.2,0.4-0.1,0.9-0.1,1.5v22.5c0,0.7,0,1.8,1,2.1c0.2,0.1,0.5,0,0.8,0.1c0.8,0.1,1.1,0.1,1.9,0.1h1.2v2.4H96.7z"/>
<path id="path16584" fill="#604C3B" d="M119.8,107.7h3.3c2.1,5.4,6.9,10.6,14.6,10.6c3.1,0,6.1-2.4,6.1-5.3c0-1.9-2.4-4.2-5.1-4.5
	l-4.4-0.7c-4.2-0.6-6.3-1.1-9.8-3.2c-3-1.7-4.8-4.8-4.8-7.8c0-6.9,6.9-10.4,15-10.4c3.6,0,7.7,0.7,10.6,2.6l2.4-2.1h2.4l0.2,11.3
	h-3.1c-2.1-5.6-5.6-9.3-12.6-9.3c-3.2,0-6.1,2.1-6.1,4.8c0,2.4,3,3.7,5.8,4.2l3,0.6c8.2,1.4,15.5,3.6,15.5,11.5c0,3.1-1.7,6-4.8,8.1
	c-2.8,1.8-6.8,2.4-10.3,2.4c-4.2,0-8.7-1-11.9-3.2l-3.2,2.9h-2.4L119.8,107.7z"/>
<path id="path16586" fill="#604C3B" d="M152.4,87.3h20.4v2.4c-0.7,0-3.1-0.1-4.2,0.4c-0.4,0.7-0.4,1.5-0.4,2.4v10.3h12.8v-10
	c0-0.6,0-1.2,0-1.8c-0.2-0.3-0.2-0.6-0.4-0.7c-0.7-0.7-3.3-0.6-4.2-0.6v-2.4h20.3v2.4l-3.4,0.2c-1.5,0.3-1.2,1.9-1.2,3v20.7
	c0,0.9,0,1.8,0.2,2.7c0,0.6,0.3,0.9,1.1,1.1c1.3,0.1,2.2,0.3,3.6,0.3v2.4h-20.4v-2.4c0.5,0,2.3-0.1,3.3-0.3c1.8-0.2,1.3-2.4,1.3-3.4
	v-8.1h-12.8v8.8c0,1.2,0,2.7,1.5,2.8c0.9,0,2.6,0.1,3.1,0.1v2.4h-20.4v-2.4h2.8c0.6,0,1.7-0.3,1.7-1c0-0.8,0.2-1.5,0.3-2.3V92.4
	c0-0.8,0.1-2.1-1.2-2.4c-1.3-0.3-2.2-0.1-3.6-0.3V87.3z"/>
<path id="path16592" fill="#604C3B" d="M236.1,101.6h14.1v2.4c-4.5,0-5.1,1.7-7.2,4.7c-0.9,1.5-1.8,2.9-3.1,4.2
	c1.2,1.2,3.1,3.1,5.2,3.1c2.6,0,3.6-2,3.9-3.9l2.6,0.4c-1.2,4.8-3.8,8.1-9.8,8.1c-2.7,0-6-1.4-8.1-3c-3.2,2.1-7.1,3-11.3,3
	c-3,0-6-0.6-8.4-2.4c-2-1.3-3.3-4.1-3.3-6.4s1.7-5,3.8-6.6c1.9-1.6,4.5-2.6,6.9-3.4c-1.2-2.1-2.1-4.1-2.1-6.5
	c0-5.5,4.8-8.5,10.9-8.5c2.4,0,4.5,0.3,6.6,1.5c1.9,1,3,2.8,3,4.9c0,4.4-4.9,6.6-9.1,8c2.4,3.3,4.9,6.6,7.5,9.8c1-1.2,2.7-3,2.7-4.8
	c0-2.1-2.9-2.3-4.8-2.3V101.6z M219.4,108.1v0.2v0.3v0.2l0.1,0.1v0.3v0.1v0.1l0.2,0.3v0.1v0.2l0.2,0.3v0.2l0.1,0.4l0.2,0.3l0.1,0.5
	l0.3,0.4l0.2,0.3l0.3,0.3l0.1,0.4l0.3,0.3l0.1,0.3l0.3,0.3c1.6,2,3.6,3,6.2,3c1,0,3-0.4,3.6-1.2c-0.6-0.7-1.3-1.4-2-2.1
	c-2.6-3-3.7-4.5-5.9-7.8c-0.4-0.8-0.9-1.5-1.5-2.4C220.6,104.7,219.4,106.2,219.4,108.1z M234.4,93.1V93v-0.3v-0.1l-0.1-0.1v-0.3
	v-0.1l-0.2-0.2v-0.2v-0.3l-0.1-0.1l-0.1-0.2v-0.1l-0.1-0.1l-0.2-0.3l-0.1-0.1v-0.1l-0.2-0.2h-0.1l-0.2-0.1l-0.1-0.2l-0.3-0.1
	l-0.2-0.2h-0.1l-0.2-0.1l-0.3-0.2h-0.1h-0.2l-0.3-0.2H231h-0.3h-0.3h-0.2c-2.7,0-3.9,1.6-3.9,3.8c0,1.7,1.9,5.1,3,6.5
	c0.3-0.2,0.6-0.2,0.7-0.3C232.9,97.8,234.4,95.8,234.4,93.1z"/>
<path id="path16594" fill="#604C3B" d="M259.8,87.3h17.7v2.4c-0.8,0-1.6,0-2.4,0.3c-0.3,0.2-0.4,0.2-0.6,0.4
	c-0.3,0.1-0.2,0.6-0.2,0.9l0.5,1.1l6.1,16.7l4.4-11.9l-1.6-4.6c-0.4-0.9-0.4-1.4-1.3-2.3c-0.3-0.4-1.1-0.4-1.7-0.4l-0.6-0.2v-2.4
	h17.1v2.4c-0.9,0-1.8,0-2.4,0.3c-0.3,0.2-0.5,0.3-0.6,0.4c-0.3,0.5,0,1.2,0.1,1.8l5.7,16.3l4.2-12c0.5-1.5,1-2.8,1-4.3
	c0-2-2.8-2.5-4.6-2.5v-2.4h12.9v2.4c-0.3,0-0.4,0.2-0.7,0.2c-2.8,0.7-3.8,3.1-4.7,5.2l-9.2,25.5h-5.4l-6.6-18.7l-6.9,18.7h-5.6
	L264,92.9c-0.3-0.6-0.4-1.4-0.9-2c-0.6-1.2-1.5-1-2.7-1.2h-0.6V87.3z"/>
<path id="path16596" fill="#604C3B" d="M339.4,120v-2.4c1.4,0,2.1-0.1,3.5-0.3c1.4,0,1.4-1.3,1.4-2.1V93.8c0-3.9,0.3-3.9-4.1-4.1
	h-0.8v-2.4h20.4v2.4h-2.1c-2.4,0-2.5,0.6-2.5,2.4v22.4c0.2,1.8,0,2.7,2.3,2.9c1.2,0.3,1.2,0.3,2.3,0.3c5.5,0,8.4-3.7,9.9-9.9h2.7
	l-0.6,12.3H339.4z"/>
<path id="path16600" fill="#604C3B" d="M373.2,120v-2.4c1.4,0,2.8,0,4.2-0.3c0.1,0,0.4,0,0.6-0.3c0.2,0,0.4-0.3,0.4-0.6
	c0.1-0.5,0.1-1.1,0.1-1.5V91.3c0-0.6-0.1-1-1-1.3c-1.1-0.3-2.1-0.3-3.2-0.3h-1.2v-2.4h17.7l4.8,0.2c2.7,0,6.6,0.2,9,1.1
	c2.1,0.7,4.4,1.9,5.7,3.3c3.4,3.3,4.8,7.2,4.8,11.6c0,2.7-0.6,5.7-1.9,8.3c-1.7,3.3-5,6-8.7,7.2c-3.3,1.2-9.3,1.2-12.9,1.2H373.2z
	 M389.5,114v0.1l0,0v0.2v0.3v0.2v0.2v0.3v0.1v0.1v0.2v0.1l0,0v0.2l0,0l0.2,0.1v0.2l0,0v0.2v0.2h0.1v0.1l0,0l0.1,0.1l0,0v0.2
	c1.1,0.6,1.8,0.6,2.6,0.6c8.5,0,9.4-3.9,10.4-10.5c0.1-1,0.3-2.2,0.3-3.3c0-1.8-0.1-3.4-0.5-5.2c-1.2-5.9-2.8-8.8-9.9-8.8
	c-0.8,0-2,0-2.9,0.7c-0.6,0.3-0.4,1.3-0.4,2V114z"/>
<path id="path16602" fill="#604C3B" d="M508.9,120v-2.4c1.4-0.1,4.2,0.5,4.8-1.2c0.2-0.5,0.2-1.1,0.2-1.7V91.6c0-0.3,0-0.6-0.2-0.9
	c-0.3-0.5-0.5-0.8-1-0.8c-1.4-0.3-2.4-0.3-3.8-0.3v-2.4h35l0.4,11.9h-2.7c-2.2-6.7-3.7-9.5-12-9.5c-1.2,0-2.6,0-3.8,0.4
	c-0.3,0.3-0.6,0.6-0.8,0.9c-0.4,0.7-0.3,1.7-0.3,2.4v8.6c5.1,0.3,7.7-2.2,8.2-6.4h2.5l0.3,15.6h-2.8c-0.3-4.2-3.2-6.9-8.2-6.9v9.9
	c0,2.1-0.1,3,2.4,3.2c0.9,0.1,1.8,0.3,2.8,0.3c8.2,0,9.9-3.3,12.2-9.7l2.5,0.1l-0.4,12H508.9z"/>
<path id="path16604" fill="#604C3B" d="M246.6,44.7h21.8v2.4c-1.6,0.2-3.7-0.3-4.9,0.6c-0.6,0.4-0.5,1.6-0.5,2.1v15
	c0,1.8,0,4.3,0.8,6c0.7,1.7,1.5,2.3,3.5,3c1.6,0.6,3.1,0.8,4.8,0.8c2.9,0,6-0.8,7.7-2.8c1.8-2.1,1.8-4.7,1.8-7.2V52.8
	c0-2.2,0-4.8-3-5.4c-0.9-0.3-2-0.3-2.7-0.3v-2.4h14.7v2.4c-4.8,0-5.6,2.4-5.7,6V66c0,1.7-0.1,2.8-0.6,4.5c-0.9,2.6-3.1,5-6,6.2
	c-2.5,1.1-6,1.4-8.7,1.4c-3.5,0-10-0.6-12.9-2.2c-3.6-2.2-4.5-5.1-4.5-8.7V48.7c0-0.7-0.2-1.2-0.9-1.3c-1-0.3-3.7-0.3-4.5-0.3V44.7z
	"/>
<path id="path16606" fill="#604C3B" d="M294.6,66.3h0.3h0.3l0.3,0.1h0.3h0.3l0.3,0.2l0.3,0.2h0.3l0.3,0.2l0.3,0.1l0.3,0.2l0.1,0.1
	l0.3,0.2l0.1,0.2l0.3,0.3l0.1,0.2l0.3,0.2l0.1,0.3l0.2,0.2l0.3,0.3l0.1,0.1l0.2,0.3l0.1,0.3l0.2,0.2v0.3l0.1,0.3l0.2,0.3V71v0.3
	l0.2,0.3v0.3v0.3c0,3.1-2.9,5.8-6.3,5.8c-3.4,0-6.3-2.7-6.3-5.8S291.1,66.3,294.6,66.3z"/>
<path id="path16610" fill="#604C3B" d="M271.5,129.1l5.1,0.1c3,0,5.7,0.3,8.5,1.6c2.3,1.4,3.8,3.9,3.8,6.3c0,5.7-5.5,7.8-11.1,8.3
	l0,0c4.8,0.7,6.4,2.7,7.5,6.6l0.4,3c0.3,1.1,0.2,1.4,0.6,2.3c0,0.1,0.3,0.4,0.4,0.6c2.7,0.9,2.8-2.1,3-3.4h2.7
	c0,0.9-0.1,1.7-0.3,2.6c-0.9,3.9-4.6,5.4-8.8,5.4c-2.3,0-5.4-0.6-7.1-1.9c-1.5-1.3-1.8-3.1-2-4.8L274,153c-0.3-3.9-0.6-6.6-5.4-6.9
	c-0.7,0-0.4,0-1.4,0h-0.4v10.4c0,0.5,0,1,0,1.7c0.3,0.9,0.6,1.1,1.6,1.2c0.9,0,0.8,0,1.7,0h1.2v2.5h-20.4v-2.5c1.1,0,1.3,0,2.4,0
	c2.6,0,2.6-0.7,2.6-2.6v-21c0-0.8,0.1-3.2-0.5-3.6c-0.9-0.7-2.1-0.6-3.3-0.6h-1.2v-2.4H271.5z M266.9,143.7L266.9,143.7h0.2l0,0h0.1
	l0,0l0,0h0.1l0,0l0,0h0.1l0,0h0.2l0,0h0.1l0,0l0,0h0.2l0,0l0,0h0.1h0.2l0,0l0,0h0.1l0,0h0.1l0,0h0.2l0,0h0.1l0,0l0,0h0.1l0,0v-0.1
	h0.1l0,0l0,0h0.2l0,0c5.1,0,8.1-1.5,8.1-6.5c0-4.3-2.7-5.7-7.3-5.7c-1.4,0-0.9,0-2.1,0.4c-1.1,0.4-1.1,1.5-1.1,2.5V143.7z"/>
<path id="path16612" fill="#604C3B" d="M288.1,129.1h20.4v2.4c-1.1,0.1-3.5-0.3-4.2,0.7c-0.3,0.6,0.2,1.2,0.3,1.8l8.6,18.8l7.6-16.8
	c0.1-0.6,0.3-1.1,0.3-1.6c0-2.1-3.2-3-5.1-2.8v-2.4h14.5v2.4c-3.7,0.3-5.4,3.4-6.7,6.1l-11.6,24.7h-6L293.6,135
	c-0.8-1.5-1.2-3-3.3-3.3c-0.6-0.1-1.5-0.1-2.1-0.1V129.1z"/>
<path id="path16614" fill="#604C3B" d="M386.2,128.5h2.2l0.4,13l-2.7,0.2c-1.4-5-4.8-11-11.5-11c-3.1,0-5.3,0.8-7.1,2.8
	c-1.8,2.1-2.1,3.8-2.7,6.3c-0.3,1.8-0.3,3.9-0.3,5.7c0,2.3,0.1,4.6,0.8,6.9c0.6,2.1,1.2,3.6,3.1,5.2c2,1.4,4,1.9,6.5,1.9
	c6.6,0,10.6-4.5,11.7-9.9l3,0.7c-2,8.1-7.2,11.9-16.8,11.9c-5.6,0-11.4-0.9-15.3-4.4c-3.6-3.2-5.1-7.9-5.1-12.3
	c0-4.7,1.8-9.7,5.7-13.1c3.6-3.1,10.1-4.3,15.2-4.3c3.8,0,6.3,0.4,9.5,2.2c0.1,0.2,0.3,0.3,0.6,0.3L386.2,128.5z"/>
<path id="path16618" fill="#604C3B" d="M50.6,532.2l1.4-0.8c0.4,0.8,0.8,1.7,1.3,2.4c0.1,0.2,0.2,0.3,0.3,0.3c0.1,0,0.3,0,0.5,0
	c0.4,0,0.6-0.2,0.9-0.3l13-6.7c0.4-0.2,0.6-0.5,0.5-1c-0.1-0.6-0.5-1.2-0.8-1.8l-0.4-0.7l1.3-0.8l5.3,10.4l1.3,2.8
	c0.8,1.5,1.3,2.9,1.6,4.5c0.2,1.5,0.2,3-0.1,4.4c-0.8,2.8-2.6,4.6-5,5.8c-1.6,0.9-3.4,1.3-5.2,1.3c-2.3,0-4.7-1.2-6.6-3
	c-1.7-1.5-2.9-4.1-4-6.1L50.6,532.2z M58.3,539h-0.1l-0.1,0.1H58h-0.1l-0.1,0.2h-0.1h-0.1l-0.1,0.1h-0.1h0h0l0,0.2h0h0l0,0.1h0h0h0
	l0,0.2h0h0l0,0.1h0h0c-0.1,0.8,0.3,1.6,0.5,2.1c2.6,5,5.3,5,9.3,3.6c0.6-0.3,1.3-0.5,1.9-0.9c0.9-0.4,1.9-1,2.8-1.7
	c2.9-2.4,3.8-4.8,1.7-9c-0.2-0.3-0.8-1.4-1.5-1.7c-0.4-0.3-0.9,0.2-1.2,0.3L58.3,539z"/>
<path id="path16620" fill="#604C3B" d="M62.6,555.5l1.3-0.7c0.6,0.6,1.5,2.7,2.5,2.4c0.3,0,0.6-0.2,0.9-0.4l12.2-7.7
	c0.1-0.1,0.3-0.1,0.5-0.4c0.2-0.3,0.2-0.5,0.1-0.8c-0.3-0.9-0.9-1.6-1.4-2.6l1.2-0.7l12.3,19.2l-6.1,4.2l-0.9-1.5
	c2.7-3.3,3.3-5.7,0.3-10.3c-0.5-0.8-0.9-1.4-1.5-1.8c-0.3-0.1-0.5-0.3-0.8-0.1c-0.5,0-0.9,0.3-1.3,0.6l-4.5,2.8
	c1.6,2.9,3.8,3.5,6.3,2.3l0.9,1.5l-8.3,5.4l-1-1.5c2.2-1.7,2.7-4.1,0.7-6.9l-5.2,3.3c-1.1,0.6-1.6,0.9-0.8,2.4
	c0.3,0.6,0.6,1.2,0.9,1.7c2.9,4.5,5.6,5.1,9.8,4l0.8,1.5l-6.6,3.6L62.6,555.5z"/>
<path id="path16622" fill="#604C3B" d="M76.3,576.9l1.2-0.9c0.5,0.6,0.9,1.1,1.3,1.7c0.9,1,1.4,0.6,2.2,0.1l11.9-9.2
	c0.1-0.1,0.2-0.3,0.2-0.4c0-0.2,0-0.3-0.1-0.5c-0.4-0.9-1.1-1.7-1.6-2.4l1.2-0.9l8.6,11.1c0.3,0.3,0.6,0.7,0.8,1.2
	c1.3,1.8,2.5,3.5,2.7,5.7c0.2,2.1-0.5,3.5-2,4.7c-4,3-8.5-1.5-11.4-5.2l-2.1-2.7l-4.5,3.4c-0.3,0.1-0.8,0.6-0.8,0.9
	c0,0.2,0,0.3,0.1,0.5c0.1,0.1,0.2,0.3,0.3,0.5c0.2,0.5,0.5,0.9,0.8,1.2l0.6,0.9l-1.2,0.9L76.3,576.9z M90.3,578.2l0.2,0.2
	c0.4,0.5,0.6,0.9,0.9,1.2c2.5,3.3,4.4,4.5,7.4,2.3c2.5-2,2.4-3.8,0.1-6.6c-0.4-0.6-1.1-1.7-1.8-1.8c-0.6-0.1-1,0.2-1.5,0.6
	L90.3,578.2z"/>
<path id="path16626" fill="#604C3B" d="M111,586.8l1.7,1.9l-7.1,17.8c-0.6,1.7-0.8,2.3,0.6,3.9l-1.1,1l-7.9-8.8l1.1-1.1
	c0.5,0.4,1.2,1.5,1.8,1.6c0.6,0,0.7-0.4,0.9-0.9l1.5-3.2l-5.8-6.4c-0.9,0.3-2,0.5-2.7,1c-1.2,1.1-0.3,2.7,0.8,3.8l-1.1,1.1l-6.5-7.2
	l1.1-1c2,1.8,4.5,1.2,6.4,0.7L111,586.8z M103.2,597.3l3-7.1l-7.6,2L103.2,597.3z"/>
<path id="path16632" fill="#604C3B" d="M128.6,605.2l1.8,1.8c1.5,1.4,2.6,2.7,3.3,4.6c0.4,1.5,0.1,3.3-0.9,4.5c-2.4,2.6-6,1-8.7-1.2
	h-0.2c1.8,2.2,2,4.3,0.9,6.6l-0.7,1.7c-0.3,0.6-0.6,1.2-0.9,1.8c0,0.2,0,0.3,0,0.5c0.9,1.5,2.7,0,3.3-0.6l1.4,1.2
	c-0.4,0.5-0.9,0.8-1.4,1c-1.9,1.5-4.5,0.4-6.4-1.4c-1.1-1.1-1.8-2.2-2-3.6c-0.1-1.2,0.4-2.1,1.1-3.2l1-1.2c1.5-2,2.6-3.3,0.3-5.6
	c-0.5-0.5-0.8-0.7-1.2-1l-0.8-0.7l-4.4,4.8c-0.2,0.1-0.5,0.5-0.6,0.6c-0.2,0.6-0.2,0.9,0.3,1.3c0.3,0.5,0.8,0.9,1.2,1.2l0.6,0.6
	l-1,1l-9.8-9l1.1-1c0.5,0.5,0.9,0.9,1.4,1.2c1.2,1,1.5,0.8,2.4,0l8.9-9.6c0.4-0.4,1.4-1.4,1.4-2c-0.1-0.7-0.8-1.2-1.4-1.6l-0.8-0.8
	l1-1.2L128.6,605.2z M119.5,609.3l0.2,0.3l0.2,0.1l0.3,0.3l0.3,0.1l0.2,0.3l0.3,0.1l0.3,0.3l0.2,0.1c2.6,2.3,4.5,2.8,6.6,0.6
	c1.8-2,1.2-3.8-1-5.8c-0.6-0.4-1.2-1.2-2-1.5c-0.7-0.3-1.2,0.3-1.6,0.7L119.5,609.3z"/>
<path id="path16634" fill="#604C3B" d="M132.8,619.5l5.1-5.7l17.9,13.6l-4.4,6.3l-1.3-0.9c1.3-2.4,2.2-6.3-0.8-8.6
	c-0.3-0.3-0.9-0.6-1.2-0.3c-0.3,0.3-0.6,0.6-0.7,0.9l-8.9,11.4c-0.6,0.8-0.7,0.9,0.3,2c0.6,0.6,1.3,1,1.9,1.5l-0.9,1.2l-10.9-8.2
	l1-1.2c0.8,0.6,1.6,1.2,2.4,1.6c0.3,0.2,0.8,0.2,0.9,0c0.3-0.1,0.4-0.4,0.7-0.7l8.6-11.2c0.1-0.3,0.4-0.6,0.6-0.9
	c0.3-0.5-0.1-0.9-0.6-1.2c-2.9-2.2-6.5-0.2-8.4,1.5L132.8,619.5z"/>
<path id="path16636" fill="#604C3B" d="M156.8,632.4L156.8,632.4l0.1-0.2l0,0l0,0l0,0l0.2-0.2l0,0V632h0.1v-0.2l0,0l0,0v-0.1h0.1
	l0,0v-0.2l0,0l0,0v-0.1l0,0v-0.2l0,0l0,0V631l0,0l0,0v-0.1l0,0v-0.2l0,0h-0.1c-0.3-0.5-1.2-1.1-1.8-1.4l-0.6-0.5l0.7-1.3l9.3,5.7
	l-1.8,13.3l10.8-8l9.3,5.7l-0.7,1.4l-0.9-0.6c-0.6-0.4-1.5-0.9-2.2-0.8c-0.5,0.4-0.8,1-1.2,1.6l-7.1,11.7c0,0.2-0.1,0.3-0.1,0.5
	c-0.3,0.9,1,1.5,1.8,2l0.8,0.4l-0.9,1.2l-10.9-6.6l0.7-1.4l1.7,1.1c0.3,0,0.6,0.3,0.8,0.3c0.3,0,0.6,0,0.7-0.3
	c0.3,0,0.5-0.3,0.6-0.6l8.1-13.2H174l-16,12l-1.3-0.9l2.7-19.8l0,0l-6.6,11c-1.1,1.9-1.8,3.7,1.2,5.4l-0.8,1.3l-8.2-5.1l0.7-1.2
	c2.7,1.5,3.8,0.8,4.9-1.2L156.8,632.4z"/>
<path id="path16638" fill="#604C3B" d="M174.1,662.4l0.6-1.3c0.7,0.3,2.7,1.6,3.5,0.7c0.1-0.1,0.3-0.4,0.4-0.7l6.1-13.1
	c0-0.3,0.3-0.5,0.1-0.6c0-0.3-0.1-0.6-0.3-0.8c-0.9-0.6-1.8-0.9-2.6-1.4l0.6-1.3l20.7,9.6l-2.9,6.8l-1.5-0.8
	c0.3-4.3-0.4-6.6-5.4-8.8c-0.7-0.3-1.5-0.8-2.2-0.8c-0.3,0-0.6,0.2-0.8,0.3c-0.4,0.3-0.6,0.8-0.7,1.2l-2.4,4.8
	c3,1.6,5.1,0.9,6.6-1.3l1.6,0.7l-4,9l-1.6-0.9c0.9-2.4,0-4.8-3.2-6.1l-2.6,5.6c-0.6,1.2-0.9,1.6,0.6,2.5c0.5,0.3,1.1,0.6,1.7,0.9
	c4.8,2.3,7.3,1.2,10.3-2l1.5,0.9l-3.5,6.6L174.1,662.4z"/>
<path id="path16640" fill="#604C3B" d="M196.8,673l0.6-1.3c3,0.9,3.6,0.3,4.5-2l4.2-11.8c-0.4-1.2-1.5-2.1-2.9-2.7l0.5-1.4l8.1,2.9
	l8.1,16.7l2.7-7.7c0.8-2.3,0.3-3.4-2.4-4.3l0.4-1.5l9.1,3.1l-0.6,1.5c-1.6-0.5-2.8-0.6-3.9,0.7c-0.4,0.6-0.6,1.3-0.9,2.2l-5,13.8
	l-2-0.7l-9.9-20.3l-3.5,9.9c-0.7,2.2-0.6,3.6,2.4,4.6l-0.6,1.5L196.8,673z"/>
<path id="path16642" fill="#604C3B" d="M227.7,670.4l2.4-7.4l21.7,5.2l-1.3,7.5l-1.6-0.3c0.1-2.7-0.4-6.6-4.2-7.5
	c-0.3-0.2-1-0.2-1.2,0.3c-0.2,0.3-0.3,0.8-0.3,1l-3.4,14c-0.2,1-0.3,1.2,0.9,1.6c0.9,0.3,1.8,0.5,2.5,0.8l-0.3,1.4l-13.4-3.2
	l0.3-1.5c1.1,0.3,2,0.5,3,0.6c0.3,0,0.8-0.1,0.8-0.4c0.3-0.3,0.3-0.6,0.4-1.1l3.3-13.5c0-0.5,0.1-0.9,0.1-1.2
	c0.1-0.4-0.6-0.8-0.9-0.9c-3.8-0.8-6.2,2.4-7.2,4.8L227.7,670.4z"/>
<path id="path16646" fill="#604C3B" d="M266.4,688.4l-0.2-0.1l-0.3-0.3l-0.1-0.2l-0.1-0.2l-0.1-0.3l-0.1-0.1l-0.1-0.3l-0.1-0.2
	l-0.2-0.3l-0.1-0.2l-0.1-0.3l-0.2-0.3v-0.2l-0.1-0.3l-0.1-0.3v-0.2l-0.2-0.3l-0.1-0.3V684v-0.3l-0.2-0.3v-0.1l-0.1-0.3v-0.3v-0.1
	v-0.3v-0.3l-0.1-0.2v-0.3v-0.3V681l0.1-0.3c0.3-3,1.6-5.6,4.5-7.4c2.4-1.7,5.9-2.4,9-2.1c3.6,0.3,6.6,1.3,9,3.8
	c2.1,2.4,3.3,5.1,3,7.9c-0.3,2.7-2.1,5.7-4.6,7.3c-2.8,1.8-5.8,2.4-9.5,2C271.6,692,268.5,690.6,266.4,688.4z M270.1,681.5v0.3v0.5
	v0.3v0.4v0.5v0.3v0.4v0.5l0.1,0.5v0.3v0.5l0.2,0.4l0.1,0.3v0.5l0.1,0.1v0.1v0.1l0.2,0.2c0.7,2.1,2.5,3.2,4.9,3.5
	c4.1,0.3,5.1-3,6-5.6c0.3-1,0.5-2.1,0.5-3.1c0.3-3.3,0.3-9.1-5.1-9.8C271.5,672.1,270.4,678,270.1,681.5z"/>
<path id="path16648" fill="#604C3B" d="M289,693v-1.3h1.9c0.4,0,0.6,0,1.1-0.2c0.1-0.1,0.1-0.1,0.3-0.1c0-0.2,0.1-0.3,0.1-0.3
	c0.1-0.5,0.1-0.9,0.1-1.4v-14c0-0.6,0-1.2-0.7-1.3c-0.6-0.3-1.4-0.2-2-0.2H289v-1.6h22.4l0.3,7.5h-1.8c-1.1-3.7-3-5.8-8.1-5.8
	c-0.9,0-1.9-0.1-2.7,0.3c-0.4,0.5-0.4,1-0.4,1.5v5.7c3.6,0.2,4.6-1,5.4-3.9h1.6v9.7H304c-0.1-0.6-0.3-1.4-0.6-1.9
	c-1-1.8-2.2-2.4-4.5-2.4h-0.3v6.3c0,1.5,0,1.8,1.9,1.9l2.1,0.2v1.3H289z"/>
<path id="path16650" fill="#604C3B" d="M327.6,679.2l-0.6-7.6l22.2-3.3l1.7,7.5l-1.7,0.3c-0.9-2.6-3-5.9-6.8-5.4
	c-0.4,0-1.2,0.3-1,0.8c0,0.5,0,0.7,0.1,1.2l2.1,14.1c0,1,0.2,1.4,1.4,1.2c0.9,0,1.8-0.2,2.7-0.3l0.2,1.5l-13.5,2l-0.3-1.4
	c1-0.3,1.9-0.5,3-0.8c0.1,0,0.6-0.3,0.6-0.6c0.1-0.3,0-0.8-0.1-1.1l-1.9-13.9c-0.1-0.3-0.1-0.8-0.1-1.1c-0.2-0.4-0.9-0.4-1.4-0.4
	c-3.8,0.6-4.8,4.5-4.8,7.2L327.6,679.2z"/>
<path id="path16652" fill="#604C3B" d="M350.5,668.2l12.6-3.3l0.3,1.5c-0.4,0-2.4,0.5-2.9,1.1c-0.3,0.5-0.2,0.9,0,1.5l1.5,5.6
	l8.7-2.3l-1.4-5.4c-0.1-0.5-0.1-0.8-0.3-1.1c-0.1-0.2-0.1-0.5-0.3-0.5c-0.6-0.3-2.7,0.3-3.1,0.5l-0.5-1.5l12.5-3.1l0.5,1.5l-2.5,0.6
	c-0.9,0.4-0.4,1.5-0.3,2.1l3.1,12.6c0.3,0.4,0.5,1,0.6,1.5c0.2,0.5,0.3,0.6,0.7,0.6c1.1-0.3,1.8-0.3,2.7-0.6l0.5,1.3l-12.6,3.3
	l-0.4-1.5c0.4,0,1.9-0.4,2.5-0.7c1.1-0.5,0.5-1.7,0.3-2.4l-1.5-5.5l-8.8,2.4l1.6,6c0.1,0.7,0.4,1.7,1.5,1.5c0.4-0.1,1.9-0.6,2.4-0.6
	l0.3,1.3l-12.6,3.3l-0.5-1.3l2.3-0.6c0.5-0.1,1-0.5,0.9-0.9c0-0.5-0.2-0.9-0.2-1.5l-3.5-13.1c-0.1-0.6-0.1-1.5-1-1.3
	c-0.9,0-1.8,0.3-2.9,0.4L350.5,668.2z"/>
<path id="path16654" fill="#604C3B" d="M385.8,680l-0.6-1.5c0.9-0.3,3.2-0.7,3.2-1.8c0-0.5-0.1-0.7-0.3-1.1l-5.1-13.5
	c-0.1-0.1-0.1-0.4-0.3-0.4c-0.3-0.3-0.4-0.3-0.7-0.3c-1,0.2-1.8,0.4-2.7,0.9l-0.6-1.5l21.3-8l2.8,6.7l-1.5,0.6
	c-2.8-3.3-5.1-4.3-10.2-2.6c-0.8,0.3-1.5,0.8-2.1,1.2c-0.1,0.2-0.3,0.5-0.3,0.8c0,0.5,0.1,1,0.3,1.4l2,5.1c3.1-1,4.2-3.1,3.6-5.7
	l1.5-0.6l3.6,9.2l-1.6,0.6c-1-2.4-3.4-3.3-6.6-2.1l2.2,5.8c0.5,1,0.6,1.7,2.1,1.2c0.6-0.2,1.2-0.3,1.8-0.5c5.1-2,6.2-4.5,6-8.9
	l1.7-0.5l2.3,7.2L385.8,680z"/>
<path id="path16656" fill="#604C3B" d="M423.9,664.1l-0.8-1.4l2-1c1.3-0.9,0.8-1.4,0.3-2.4l-6.5-12.2c-0.1-0.1-0.3-0.4-0.6-0.7
	c-0.1-0.2-0.3-0.5-0.8-0.3c-0.6,0.2-1,0.6-1.6,0.8l-1,0.6l-0.6-1.4l11.6-6.3l0.7,1.4l-0.9,0.5c-0.6,0.4-1.5,0.7-1.8,1.3
	c-0.2,0.3,0,0.5,0,0.6c0.1,0.4,0.3,0.6,0.4,0.9l6.6,12.5c0.3,0.4,0.6,1,1.2,0.9c0.1,0,0.3-0.1,0.4-0.1c0.6-0.3,1-0.6,1.5-0.7
	l0.8-0.3l0.8,1.2L423.9,664.1z"/>
<path id="path16658" fill="#604C3B" d="M438.6,656.4l-0.9-1.4c2.7-1.8,2.7-2.7,1.4-4.8l-6.8-10.5c-1.4-0.4-2.7-0.1-3.9,0.8l-0.9-1.4
	l7.2-4.6l18.1,3.7l-4.5-6.9c-1.2-2-2.5-2.2-4.9-0.8l-0.8-1.2l7.9-5.2l0.9,1.2c-1.4,1.2-2.4,1.9-1.8,3.6c0.3,0.8,0.7,1.5,1.2,2.1
	l7.9,12.3l-1.8,1.2l-22-4.5l5.7,8.7c1.4,2.1,2.5,2.7,5.2,1l0.8,1.2L438.6,656.4z"/>
<path id="path16660" fill="#604C3B" d="M455.5,629.9l-4.4-6.3l17.4-14.1l5.3,5.7l-1.4,1c-2-1.8-5.6-3.6-8.6-1.2
	c-0.3,0.3-0.7,0.8-0.4,1.1c0.1,0.5,0.4,0.8,0.6,1l9.2,11.1c0.6,0.7,0.8,1,1.8,0.3c0.7-0.4,1.3-1.1,2.1-1.5l0.9,1.2l-10.6,8.5
	l-0.9-1.2c0.7-0.6,1.3-1.3,2.1-2.1c0.3-0.1,0.4-0.6,0.1-0.8c0-0.5-0.3-0.8-0.5-0.9l-8.8-10.9c-0.2-0.3-0.4-0.6-0.7-0.9
	s-0.9,0-1.2,0.3c-3,2.4-1.8,6.3-0.6,8.6L455.5,629.9z"/>
<path id="path16662" fill="#604C3B" d="M482.8,624.2l-1.1-1.1c0.6-0.7,2.5-1.9,2.1-3c-0.2-0.3-0.5-0.6-0.8-0.8L473.1,609
	c0-0.2-0.3-0.4-0.4-0.4c-0.3,0-0.4,0-0.7,0.1c-0.8,0.4-1.5,1.2-2.3,2l-0.9-1.2l16.4-15.9l5.2,5.1l-1.2,1.2
	c-3.9-1.9-6.4-1.9-10.2,1.8c-0.6,0.6-1.2,1.2-1.6,1.9c0,0.2,0,0.5,0,0.8c0.3,0.4,0.6,0.7,0.9,1.2l3.7,3.7c2.5-2.1,2.7-4.5,1.1-6.6
	l1.2-1.2l7,7l-1.3,1.2c-2.1-1.8-4.5-1.8-6.9,0.8l4.2,4.3c0.9,0.9,1.4,1.3,2.5,0.3c0.6-0.5,1.1-0.7,1.5-1.2c3.8-3.7,3.8-6.4,2-10.4
	l1.2-1.2l5.1,5.7L482.8,624.2z"/>
<path id="path16666" fill="#604C3B" d="M494.2,583.1l1.7-2c1.3-1.5,2.7-2.9,4.5-3.5c1.7-0.7,3.5-0.4,4.5,0.6c2.7,2.2,1.5,6-0.8,8.8
	l0,0c2.3-1.8,4.2-2.1,6.6-1l1.7,0.7c0.6,0.1,1.2,0.4,1.9,0.6h0.3c1.6-0.9,0-2.5-0.6-3.3l1-1.2c0.5,0.3,0.9,0.7,1.2,1.2
	c1.5,2,0.6,4.3-1.2,6.6c-0.9,1-2.1,1.8-3.4,2.1c-1.2,0.1-2.2-0.3-3.1-1.1l-1.4-0.9c-1.9-1.4-3.3-2.4-5.5,0c-0.5,0.3-0.7,0.7-1,1.1
	l-0.8,0.9l5.1,4.2c0.1,0.2,0.4,0.3,0.7,0.6c0.4,0.3,0.8,0.1,1.2-0.3c0.5-0.5,0.8-0.9,1.2-1.4l0.6-0.6l1.1,0.9l-8.6,10.2l-1.2-1
	c0.5-0.5,0.9-0.9,1.2-1.4c1.1-1.3,0.8-1.6-0.1-2.4l-10.1-8.4c-0.3-0.5-1.3-1.5-1.8-1.3c-0.7,0.1-1.2,0.9-1.7,1.5l-0.7,0.7l-1.2-0.9
	L494.2,583.1z M498.7,591.8l0.1-0.2l0.3-0.3l0.1-0.3l0.3-0.3l0.1-0.3l0.1-0.2l0.3-0.3l0.2-0.3c2.1-2.6,2.7-4.6,0.3-6.6
	c-1.9-1.8-3.8-1.1-5.7,1.3c-0.6,0.6-1.2,1.3-1.5,2.1c-0.1,0.6,0.3,1.2,0.8,1.5L498.7,591.8z"/>
<path id="path16668" fill="#604C3B" d="M518.5,585.4l-1.2-0.9l1.4-1.6c0.7-1.4,0.1-1.7-0.8-2.4l-11.1-8.1c-0.3-0.1-0.4-0.3-0.8-0.5
	c-0.4-0.2-0.6-0.3-0.9,0.1c-0.6,0.3-0.9,0.9-1.2,1.3l-0.6,0.9l-1.2-0.9l7.6-10.7l1.2,0.8l-0.6,0.9c-0.4,0.6-1,1.4-1,2.1
	c0.1,0.1,0.3,0.3,0.3,0.4c0.3,0.3,0.6,0.5,0.7,0.6l11.4,8.2c0.5,0.3,0.9,0.7,1.5,0.3c0.2-0.2,0.2-0.3,0.3-0.3
	c0.4-0.5,0.8-0.9,1.1-1.3l0.4-0.6l1.2,0.9L518.5,585.4z"/>
<path id="path16672" fill="#604C3B" d="M526.6,569.7h-0.3l-0.3,0.2h-0.2l-0.3,0.1h-0.3H525l-0.3,0.2h-0.2h-0.3h-0.3h-0.3h-0.3h-0.1
	h-0.3h-0.3h-0.3l-0.2-0.2h-0.3h-0.3h-0.3l-0.2-0.1h-0.3l-0.3-0.2h-0.2l-0.3-0.1h-0.3l-0.1-0.1l-0.3-0.2h-0.1l-0.3-0.2l-0.1-0.2
	l-0.3-0.2c-2.4-1.5-4-4-4.5-7.4c-0.4-2.8,0.5-6.3,2.1-9c1.9-3.1,4.3-5.2,7.5-6.3c3-0.9,6-0.6,8.4,0.9c2.3,1.5,4.2,4.3,4.5,7.4
	c0.4,3.4-0.5,6.3-2.4,9.4C532.2,566.7,529.6,568.8,526.6,569.7z M522.1,563.3l0.3,0.2l0.3,0.1l0.3,0.2l0.5,0.3l0.3,0.2l0.3,0.1
	l0.5,0.2l0.5,0.1l0.3,0.2l0.5,0.1l0.3,0.2h0.5l0.4,0.2h0.3l0.3,0.1h0.2h0.1h0.2c2.2,0.2,3.9-0.9,5.2-3c2.1-3.5-0.3-5.8-2.4-7.6
	c-0.6-0.8-1.5-1.4-2.4-2c-2.8-1.8-8.2-4.3-11.1,0.3C514.3,558,519.1,561.3,522.1,563.3z"/>
<path id="path16676" fill="#604C3B" d="M528.6,530.5l1.2-2.2c0.9-1.8,1.8-3.3,3.6-4.5c1.3-1.1,3.1-1.2,4.5-0.6
	c3.1,1.6,2.7,5.4,1.4,8.8l0,0c1.8-2.3,3.6-3.1,6-2.7l2,0.3c0.6,0.1,1.3,0.3,1.9,0.1c0.2,0,0.3,0,0.5,0c1.2-1.4-0.7-2.6-1.5-3
	l0.8-1.5c0.5,0.1,1.1,0.5,1.3,0.9c2,1.5,1.8,4.2,0.6,6.6c-0.8,1.4-1.7,2.4-2.9,2.8c-1.2,0.6-2.3,0.3-3.3-0.1l-1.6-0.6
	c-2.2-0.9-3.7-1.5-5.4,1.4c-0.2,0.4-0.5,0.9-0.6,1.3l-0.5,1l5.9,2.9c0.3,0.1,0.6,0.3,0.7,0.3c0.6,0.1,0.9,0,1.2-0.6
	c0.3-0.4,0.6-1.1,0.9-1.5l0.3-0.8l1.3,0.6l-5.8,12l-1.3-0.6c0.3-0.6,0.6-1.2,0.9-1.8c0.6-1.4,0.2-1.7-0.9-2.2l-11.7-5.7
	c-0.5-0.3-1.7-1.1-2.1-0.8c-0.8,0.3-0.9,1.1-1.3,1.8l-0.5,0.9l-1.3-0.6L528.6,530.5z M535.2,537.9v-0.2l0.1-0.1v-0.2l0.2-0.1v-0.2
	l0.1-0.1l0.1-0.3l0.2-0.3v-0.3l0.1-0.3l0.2-0.2v-0.1c1.5-3,1.5-5.1-1.3-6.4c-2.4-1.2-3.9,0-5.3,2.7c-0.3,0.8-0.8,1.5-0.9,2.2
	c0,0.7,0.6,1.2,1.2,1.4L535.2,537.9z"/>
<path id="path16678" fill="#FFF200" d="M275.4,188.7l-0.5,2.4l-0.4,2.6l-0.3,2.6l-0.3,2.5l-0.1,2.5l-0.2,1.3v1.2l-0.1,1.4v1.3v1.2
	v1.3c0,59.6,48.1,107.7,107.7,107.7c59.4,0,107.7-48.2,107.7-107.7c0-7.3-0.8-14.7-2.3-21.7L275.4,188.7z"/>
<polygon id="polygon16680" fill="#FFFFFF" points="158.9,336.5 160.8,340.4 176.4,340.5 183.9,337.2 182,333.3 171.9,331.1 "/>
<path id="path16682" fill="#007AC2" d="M183.9,337.2h-0.6h-0.6h-0.6h-0.7h-0.8h-0.9h-0.8l-0.9,0.1h-0.8l-0.9,0.2l-1.8,0.1l-2,0.1
	l-1.8,0.3l-0.9,0.2l-0.9,0.2h-0.8l-0.9,0.1l-0.8,0.1l-0.7,0.1l-0.8,0.1l-0.7,0.2l-0.6,0.1l-0.6,0.2l-0.6,0.1l-0.5,0.1l-0.4,0.2
	l-0.4,0.2l-0.2,0.1h-0.2v0.2h-0.1c-1.8,15.1-1.8,34,14.1,48.3c15.7,14.3,28.5,22.8,34.3,28.2c6,5.2,19.5,17.4,27.5,20.9
	c-0.6,6,1.8,22.4,7.2,26.4c-0.3,1.1,0.2,3.5,0.2,3.5s1.8,1.8,2.8,2.1c0.9,0.3,2.2-0.6,2.2-3.1c0-2.6-0.6-0.5-0.7-2.1
	c0-1.7,0.6-2.3,0.6-3.9c0-1.7-0.4-3.9-0.4-3.9s-2.3-3.6-4.1-4.8c-0.2-2.1-1.1-7.5,0.1-9.9c1.1-2.4,2.1-3.9,4.2-3.9
	c2.1,0,1.9,1.8,1.9,3.3c0,1.4,0.1,6.1,0.1,6.1s4.2,4.6,5.4,4.5c0,2.1,3,7.1,6.9,7.2c2.4,1.5,7,1.8,8.8,0.8c2.3,0.7,8,2.2,11.4,0
	c1.7,0.7,13.7,3.8,20.9-0.2c4.2-1.2,5.2-3.9,5.2-5.5c0-1.7-1.2-2.6-2.4-3.6c0.6-1.9,1.2-3.7,1-5.9c-0.1-2.1-0.3-6-2.1-9
	c0.6-1.8,1.6-2.8,1.1-5c-0.6-2.1-1.8-2.7-3.5-4.3c0.8-1.8,0.3-3.6-1.5-4.7c-1.6-1.2-5.4-1.9-8.1-4.5c-2.9-2.4-6.6-6.4-7.9-9.3
	c-1.5-3-3.5-15.7-14.4-20.1v-2.7c5.4-3.6,8.4-4.4,20-0.6c1.9,0.9,5.4,2,6,0.3c0.8-1.7-0.1-3.3,0.9-4.5c1.2-1.4,4.4,0.4,5.4-1.1
	c0.9-1.5,0.9-6.3,1-9.1c0.6-9.3,42.1-46.1,44.7-67.8c1.2-1.4,4.5-2.7,4.5-4.2c0-1.6-0.4-4.9-0.4-4.9c6.7-3.8,9.6-9.9,9.3-12
	c1.9-0.9,7.2-6.2,4.9-10.2c2.9-2.1,10.8-10.5,8.7-15.5c3.6-4,8.4-8.2,7.2-12.6c4.2-3.6,6.3-9.1,6.1-14.7c2.2-3,6-8.6,3.9-9.6l-8,7.9
	c4.7-6,8.4-11.2,5.7-13.8c0,0-10.7,13.4-13.8,17.2c-3.1,3.7-44.1,45.5-69.1,55.7c-12.9,5.4-21.9,26-25.8,28.2c-1.6,1-2.5-1-1.9-4.1
	c0,0-3.3,1.3-2.1-1.8c1.1-3,3-8.9-1.2-7.6c-3-2.7,4.4-7.2,1.5-9.5c-2.4-1.6-2.7-0.9-2.7-0.9s5.1-9.7,0.9-10.2
	c-4.1-0.5-4.8,0.9-4.8,0.9s5.2-7,2.1-9c-3-1.8-4.5,1.3-5.5,0.3c-1.2-1.1,4.9-9.6,1-11.4c-3.7-1.8-5.9,4.5-8.1,2.5
	c-2.4-2,5.4-8.6,2.7-11.3c-2.4-2.7-10.3,6.1-12,8.9c-0.5,0.9-1.5,1.4-2.3-0.4c-0.6-1.8,6.6-11.7,1.4-12.2
	c-3.6-0.3-29.4,28.5-38.6,48.7c-5.8,12.9-6.1,20.4-3.1,25.8c2.3,4,3.8,13.2-2.4,19.2c-3,2.7-11.6,1.8-14.4,0.1
	C190.6,340.5,186.6,337.9,183.9,337.2z"/>
<path id="path16684" fill="#007AC2" d="M94.7,316.7L94.7,316.7L94.7,316.7h0.1h0.1H95l0.1-0.1h0.1h0.2h0.2l0.2-0.2H96h0.2h0.2
	l0.3-0.1H97l0.3-0.1h0.6l0.6-0.2l0.7-0.2l0.7-0.1l0.7-0.1l0.8-0.1l0.8-0.2l0.8-0.1l1.6-0.4l0.8-0.2l0.8-0.2l0.8-0.1l0.7-0.1l0.7-0.2
	l0.7-0.1l0.6-0.1h0.6l0.3-0.1h0.3l0.2-0.2h0.2h0.2h0.2l0.2-0.1h0.2h0.1h0.1l0.1-0.1h0.1c0.7-0.2,3.8-2.3,4.9-3.9l4-6.2
	c3.7-7,12.3-10.6,21.6-10.6c16.2,0,26.8,14.5,39,41.1c-5.9-0.6-21.1,1.7-23.1,3.1c-1.5-4.4-7.1-7.8-11.3-7.6
	c-5.4,0.1-9.4-1.2-12-2.6c-2.7-1.3-7.6-2.7-11.2-2.5c-6.8,0.4-12.8,0.9-16.5,0.9C104.2,324.6,98.1,323.4,94.7,316.7z"/>
<path id="path16686" fill="#FFFFFF" d="M129.6,307.2h0.1l0,0h0.2h0.1h0.2V307h0.1h0.1v-0.1h0.2h0.1v-0.2h0.1l0.1-0.1l0,0l0.2-0.2
	l0,0l0.1-0.1l0,0l0.1-0.1V306l0,0l0.2-0.1v-0.1l0,0l0.1-0.1v-0.2l0,0v-0.2v-0.1v-0.2v-0.1c0-1.4-1-2.4-2.2-2.4c-1.4,0-2.4,1-2.4,2.4
	C127.2,306.1,128.2,307.2,129.6,307.2z"/>
<path id="path16690" fill="#007AC2" d="M454.6,551.8v0.2v0.3l-0.1,0.1v0.3v0.2l-0.1,0.3v0.2l-0.2,0.2v0.3l-0.1,0.1l-0.2,0.2
	l-0.1,0.1l-0.2,0.2v0.1l-0.1,0.2l-0.1,0.1L453,555l-0.2,0.1l-0.3,0.2l-0.5,0.3l-0.3,0.2l-0.4,0.1l-0.4,0.2l-0.5,0.1H450l-0.5,0.2
	h-0.6h-0.5H448h-0.6l-0.4-0.2h-0.5l-0.6-0.1l-0.4-0.2l-0.4-0.1l-0.5-0.3l-0.5-0.2l-0.4-0.3l-0.5-0.3l-0.4-0.3l-0.3-0.3
	c-2.7,2.8-4.6,6-7.2,8.8c-4.8,5.1-9.7,9.9-16.2,13.1c-6,3-12.3,5.2-18.1,8.1c-4.6,2.3-4.9,8.7-8.4,12.9c-2.4,3-4.6,6.1-8,7.6
	c-4.9,2.6-6.6-3.7-7.5-8.1c-0.3-1.7-2.9-2.4-4-2c-4.6,1.8-9.1,4.5-11.3,9.3c-1.5,3.3-1.4,6.6-0.4,10c0.1,1.2,3.3,2.6,3.1,1.4
	c-0.4-3.1-0.6-5.9,1.8-7.9c1.5-1.4,3.8-0.9,5.4,0.2c2.1,1.3-0.6,3.4-1.6,4.8c0.4,0.3,0.7,0.6,0.6,1.2c1.2,0,2.4,0.3,3.3-0.2
	c3.8-1.7,6.5-5.1,10.8-3.8c0.9,0.1,0.8,1.1,0.5,1.7c-0.6,1.5-3.3,1.7-1.8,2.4c4.9,2.7,6.6-3.6,9.6-6.7c1.1-1.2,2.9,1.5,4.8,0.9
	c0.4-0.2,0.9-0.6,1.1-1.1c0.4-1.6-0.8-2.7-1.5-4c-1-1.9,0.6-3.9,1.4-5.4c0.9-1.8,3.5-4.2,5.7-2.7c1.2,0.8,3.9,1.6,2.7,3.5
	c-0.9,1.3-2.7,2.4-1.8,4c1.2,2.4,3.6,4,5.9,2.7c3.1-1.8,7.2-5.2,4-9.7c-1.5-2.1-0.9-5.6,1.2-8.1c2.2-2.7,5.8-4.6,9-2.7
	c0.9,0.8,2.4,1.8,2.1,3.2c-0.3,2.4-4.6,1.7-3.6,4c2.1,4.8,7,1.8,8.7-1.8c1-2.1-0.8-4.3-1.8-6.3c-1.9-3.8,1.2-8.3,5.4-8
	c0.3,0,1.7-0.1,1.7,0.8c-0.3,1.8-0.6,3.4,1.2,4.5c0.6,0.3,1.6,0.3,2.1,0c3.5-1.8,4.9-5.2,6.3-8.8c0.7-1.9,3-3.7,5.2-5.1
	c0.9-0.6,3.2,0.3,2.6,1.5c-0.9,1.5-1.9,3.6-0.3,4.5c1.6,0.7,3.1-0.4,3.5-1.6c0.7-2.4,0.7-4.8,3.3-5.5L454.6,551.8z M454.6,551.8
	v-1.1v-1v-1v-1l-0.1-1.1v-1.2l-0.1-1v-1.2l-0.2-1.2l-0.1-1l-0.2-1.2l-0.1-1.2l-0.2-1.1l-0.3-1.2l-0.2-1l-0.3-1.1c-0.4-2.4-1-5.1,0-9
	c0.9-3.3,2.2-11.4,3.6-20.2h68.3c-9.8,25.5-23.9,48.7-41.1,69.1c0.6-0.9-5.4,0.3-5.9-0.9c-1.7-3.1,3.2-2.8,3.8-4.9
	c0.6-2.7-2.6-5.9-5.6-4.2c-3.3,1.7-4.9,5.3-6.1,8.7c-0.4,1.4-2.4,2.4-4.2,1.7c-1-0.4-2-1.5-2.1-2.7c-0.3-2.1,2.9-2.4,2.9-3.9
	c0.1-2.2-2.6-2.8-4.6-2.2L454.6,551.8z M476.1,552.6L476.1,552.6h0.2l0.1-0.2l0,0h0.1l0,0h0.2l0,0l0.1-0.1l0,0h0.2l0,0l0.1-0.2l0,0
	l0.1-0.1l0,0h0.1v-0.2l0,0l0.1-0.1l0,0v-0.1l0,0l0.1-0.2l0,0v-0.1v-0.2l0,0V551l0,0v-0.2l0.2-0.1c0-0.9-0.8-1.7-1.8-1.7
	c-1,0-1.8,0.8-1.8,1.7C474.3,551.7,475,552.6,476.1,552.6z M474.9,539.3h0.1h0.1l0,0h0.1h0.1h0.1l0.1-0.2l0,0h0.1l0.1-0.1l0,0h0.2
	l0.1-0.1l0,0l0.1-0.2l0,0l0.2-0.1l0,0l0.1-0.2v-0.1h0.2V538v-0.1h0.1v-0.2v-0.1l0.1-0.2l0,0v-0.1v-0.2V537v-0.2c0-1.3-1-2.4-2.4-2.4
	c-1.3,0-2.4,1.1-2.4,2.4C472.5,538.2,473.5,539.3,474.9,539.3z M482.2,523.1h0.2h0.3h0.1h0.1l0.2-0.1h0.1h0.1l0.2-0.2h0.1l0.2-0.1
	h0.1l0.1-0.1h0.1l0.1-0.2v-0.1l0.2-0.2h0.1l0.1-0.2v-0.1l0.1-0.1l0.1-0.1v-0.2l0.2-0.2V521l0.1-0.1v-0.2v-0.1v-0.2l0.1-0.1V520v-0.1
	v-0.3c0-1.8-1.5-3.3-3.5-3.3c-1.8,0-3.3,1.5-3.3,3.3C478.9,521.6,480.4,523.1,482.2,523.1z M485.1,532.2h0.1l0,0h0.2l0,0h0.1l0,0
	h0.1l0,0l0.2-0.2l0,0l0,0h0.1v-0.1h0.2l0,0v-0.2h0.1l0,0v-0.1h0.1v-0.2l0,0v-0.1h0.2l0,0v-0.2l0,0V531l0,0v-0.1v-0.2l0,0
	c0-0.9-0.6-1.6-1.5-1.6c-0.9,0-1.6,0.7-1.6,1.6S484.2,532.2,485.1,532.2z M486.1,546.6h0.1h0.1l0,0h0.2l0,0h0.2l0.2-0.2l0,0h0.1l0,0
	l0.1-0.1l0,0h0.1v-0.1h0.1l0,0V546h0.1v-0.2l0,0l0.1-0.1l0,0v-0.1h0.1v-0.2l0,0v-0.2v-0.2l0,0v-0.1l0,0l0.1-0.1c0-1-0.9-1.8-1.9-1.8
	c-0.9,0-1.7,0.8-1.7,1.8C484.5,545.8,485.2,546.6,486.1,546.6z M406,585.8v-0.2l0,0v-0.2v-0.1l0,0l0.1-0.2V585l0,0v-0.2l0.1-0.2l0,0
	l0.1-0.1l0,0v-0.2l0.1-0.2l0,0l0.2-0.1l0,0h0.1V584h0.1l0.1-0.2l0,0h0.2h0.1v-0.1h0.1h0.1l0,0h0.1h0.2l0,0c1.3,0,2.2,0.9,2.2,2.1
	c0,1.2-0.9,2.2-2.2,2.2C407.1,588,406,586.9,406,585.8z"/>
<path id="path16696" fill="#007AC2" d="M294.3,549h-0.7h-0.9h-1.4h-1.5h-1.6h-1.8h-2.1H282h-2.4h-2.7h-2.7h-3h-3h-3.3h-6.7h-7.4
	h-7.6H235h-8.2h-8.6h-8.7H192h-8.7h-8.6h-8.5h-8.3H150h-7.5h-7.2h-6.6h-3.2h-3h-2.9H117h-2.5h-2.3H110h-1.9h-1.8h-1.5h-1.3h-1.1
	h-0.9h-0.6h-0.4h-0.1c26.6,40.8,65.1,73.1,110.7,91.7c5.4-0.1,23.9-0.1,29-3c2.8-1.7,4-5.9,1.9-8c-0.9-1.1-2.2,2-3.6,3
	c-3-3.8-1.5-10.8,3-11.4c4.5-0.6,9,3.9,7.8,9.1c0.8,0,1.6,0.3,2.1-0.1c2.1-1.5,1.2-4.6,3.1-5.9c1.9-1.4,3.6,1.5,4.6,3.5
	c0.6,1,2.5-0.3,2.9-1.5c0.4-1.2-1.7-2.4-0.8-3.8c0.8-1.2,2.6-1.8,3.8-1.1c2,1.1,2.9,3.9,5,2.4c1.2-0.9,2.2-3.1,0.6-4
	c-0.9-0.6-2.5,0-3.2-1.5c-0.4-1.2,0-2.7,1.1-3.1c4.8-2.1,7.7,3.1,10.5,6.4c1.5,1.8,4.1,1.7,6.4,0.8c-4.4-7.8-12.6-13.9-12.6-23.1
	c0-3.3,3.9-4.8,6.9-5.3c8.3-0.9,14.7-0.9,22,0.6L294.3,549z M301.6,594.8l2.3,0.5l1,0.1l1.2,0.3l1.1,0.2l1,0.1l1.2,0.2l1.1,0.1
	l1.1,0.2l1,0.1h1.2h1.1h1.1h1l1.2-0.1l1-0.2c5.7-0.7,15.6-5.4,14.4-6.4c-2.2-1.8-1.9-5.2,0.5-6c13.6-4.2,22.3-14.8,31-25.6
	c0.8-0.9,8.8-9.8,7.3-15.7c-2.4-8.9-5.7-17.6-4.2-26.7c0.6-4.6,7.5-8.9,9.4-10.8H260.1c-2.4,0-7.8,0.6-7.8,2.7
	c0,2.5,4.2,4.2,7.8,5.3c3.8,1.2,42.1,10.5,49.2,12.1s16.6,6.2,16.6,12c0,6.8-14.4,12-31.6,12L301.6,594.8z M230.1,616.3v-0.2v-0.1
	v-0.2v-0.1v-0.2l0.1-0.1v-0.1v-0.1l0.2-0.2v-0.2l0.1-0.1l0,0l0.2-0.1v-0.1l0.1-0.2l0,0l0.1-0.1l0.1-0.2h0.2v-0.1h0.1l0.2-0.2h0.1
	l0.2-0.1h0.1h0.2l0.1-0.2h0.2l0,0h0.1h0.2h0.3c1.7,0,2.8,1.3,2.8,3s-1.2,3-2.8,3C231.4,619.3,230.1,618,230.1,616.3z M231.1,599.4
	v-0.3V599v-0.2v-0.1l0.2-0.2v-0.1v-0.3l0.1-0.2v-0.2l0.2-0.1v-0.2l0.1-0.1l0.2-0.1V597l0.1-0.2h0.2l0.1-0.1l0.2-0.1l0.1-0.1l0,0
	l0.2-0.2l0.1-0.1h0.2l0.3-0.2h0.1h0.2l0.1-0.1h0.1h0.1h0.2h0.3l0.2-0.2c2,0,3.6,1.7,3.6,3.8c0,2-1.6,3.6-3.6,3.6
	C232.8,603,231.1,601.4,231.1,599.4z M248.2,581.6v-0.3V581v-0.1v-0.3l0.2-0.3V580l0.2-0.3v-0.3l0.1-0.1l0.2-0.3l0.1-0.2l0.1-0.2
	l0.1-0.3l0.2-0.2l0.1-0.2l0.1-0.3l0.2-0.1l0.1-0.2l0.3-0.1l0.2-0.1l0.1-0.2l0.3-0.1h0.1l0.3-0.2l0.3-0.1h0.1l0.3-0.2h0.1h0.3
	l0.3-0.1h0.3h0.1c3,0,5.2,2.4,5.2,5.3c0,2.8-2.2,5.2-5.2,5.2C250.5,586.8,248.2,584.4,248.2,581.6z M268,587.1v-0.2v-0.1v-0.3
	l0.2-0.2v-0.2v-0.1l0.1-0.3v-0.2l0.1-0.2v-0.1l0.2-0.2l0.1-0.1v-0.2l0.1-0.2l0.1-0.1l0.2-0.2l0.1-0.2l0.2-0.1l0.1-0.1l0.2-0.2h0.1
	l0.1-0.1h0.1l0.2-0.2h0.1l0.3-0.1h0.1l0.1-0.1h0.3h0.1h0.2h0.3c2.1,0,3.9,1.8,3.9,3.9c0,2.3-1.8,4.1-3.9,4.1
	C269.9,591.2,268,589.4,268,587.1z M283.8,573.3v-0.2v-0.3v-0.1v-0.3l0.2-0.1v-0.2l0.1-0.3v-0.1l0.1-0.1v-0.3l0.2-0.1l0.2-0.2
	l0.1-0.2v-0.1l0.1-0.2l0.2-0.1l0.1-0.1l0.1-0.2l0.1-0.1l0.3-0.2l0.2-0.1h0.2l0.1-0.1l0.3-0.2h0.1l0.1-0.2h0.3h0.1l0.3-0.2h0.1h0.3
	h0.1c2.4,0,4.4,2,4.4,4.3c0,2.6-1.9,4.5-4.4,4.5C285.7,577.8,283.8,575.9,283.8,573.3z M320.8,564.9v-0.3v-0.1v-0.2l0.1-0.3v-0.2
	v-0.1l0.2-0.2v-0.3l0.1-0.2v-0.2l0.1-0.2l0.1-0.1v-0.2l0.2-0.1l0.1-0.2l0.1-0.1l0.2-0.1l0.1-0.2l0.1-0.2h0.1l0.2-0.2l0.1-0.1h0.1
	l0.3-0.1h0.1l0.1-0.2h0.1h0.3l0.1-0.1h0.1h0.3h0.2c2.2,0,4,1.8,4,4c0,2.1-1.8,4-4,4C322.6,569,320.8,567,320.8,564.9z"/>
<path id="path16712" fill="#007AC2" d="M457.5,500.4v-0.5l0.2-0.6v-0.6l0.1-0.5l0.2-1.2l0.1-1.2v-0.5v-0.6l0.2-0.6v-0.6l0.2-0.4
	v-0.6v-0.4l0.1-0.4h70.8c-0.9,2.9-1.9,5.9-3,8.7H457.5z"/>
<path id="path16694" fill="#007AC2" d="M388.3,491.7H73.1c4.9,15.1,11.1,29.6,18.7,43.2l0,0h182.5c8.1,0,12.2-1.3,12.2-3.9
	s-2.7-3.9-4.8-4.5c-2.6-0.9-47.6-14.3-51.2-15.3c-3.7-1.2-9-3.2-9-6.3c0-3,9-4.5,12.6-4.5c1.8,0,77.3,0,149.7,0
	c0.7-0.5,1.3-2.3,2.7-2.3c-0.3-1.2,0-2.2,1-2.7c0.6-0.3,1.1,0,1.1,0.5L388.3,491.7z M398.5,497.1v0.5v0.6v0.5v0.6v1v0.6v0.4v0.6v0.5
	l-0.2,0.6v0.5v0.4l-0.2,0.6v0.5l-0.1,0.3v0.3c-0.2,0.3-1.7,0.4-2,1.2c-0.4,1.4,0.3,2.7,1.1,3.9c-0.6,0-1.6,0-1.5,0.5
	c1,3-1.8,5.4-0.1,8.1c-0.5,0-0.8-0.2-1.2,0c-0.3,0.1-0.6,0.4-0.6,1.1c-0.7-0.2-1-1.7-2.1-1.1c-0.6,0.1-0.9,0.6-0.6,1.1
	c0.6,1,1.6,1.3,2.7,1.2v1c-1-0.2-2.1,0.5-2.7,1.2c-0.6,0.8,0.7,1.6,0.4,2.1c-2.6,1.9-2.1,5.2-4,7.3c-0.8,0.7-1.5,2.1-2.7,2.4
	c0.9,1.5,0.5,3.1-1.1,3.9v-1c0.4,0.2,0.9-0.1,1.1-0.6c0.2-0.6,0.2-1.6-0.4-1.5c-4.5,0.6-1.4,7.3-3.2,10.5c0,0.2-1.2-0.3-1.4,0.6
	c-0.3,1.6-0.3,2.9,1.1,3.9c-0.9,0.4-1.5-0.8-2.3-0.5c-1.8,1.2-1.9,3.8-1.2,5.6c-0.6,0.2-0.9-0.5-1.1-0.3c-1.8,0.3-4.1,1.5-3.4,3.7
	c-0.6,0-1.1-0.2-1.7,0c-0.4,0.1-0.9,0.6-0.6,1c0.3,0.4,0.8,0.6,0.6,1.2c-1.3,2.4-4.3,4.6-5.4,1.5c-0.2-0.6,2.4-0.9,2.4-2.1
	c0-2.4,2.5-3.4,3.1-5.4c0.4-0.3,1.8-0.8,1.5-1.4c-0.3-0.5-0.9-0.8-1.1-1.2c-0.4-1.7,1.4-2.2,2.6-3c2-1.4,1.6-4.1,1.5-6.5
	c0-0.6,0.9-1.2,1.5-1.8c2.2-2.2,2.1-5.4,3.7-7.9c1.7-2.5-2.2-5.1-0.6-7.1c0.6-0.7,2.7-0.3,3.6-1.5c0.6-0.8-0.3-1.7-1.1-2.1
	c-0.3-0.1-0.9,0-1-0.1c-0.3-0.2-0.2-0.9-0.2-0.9c3.4-0.6,3-5.2,1.7-7.3c-0.2-0.3-1.2,0.2-1.5-0.2c-0.5-0.3,0-0.9,0.4-1
	c0.6-0.1,1.4,0.1,1.6-0.1c1.5-1.2,1.4-2.9,3.5-3.3c-0.3-0.3-0.7-0.9-1-1c-0.6-0.3-0.9,0.1-1.2,0.4c-0.4,0.3-0.9-0.1-1-0.6
	c-0.2-0.3-0.2-0.8-0.2-1c0.8,0.6,1.8,1.3,2.1,0.9c1.8-1.9-0.6-3.9,2.4-5.5c0.3-0.1,0.3-1.2-0.4-1.5c-0.3-0.1-0.9,0-1.1-0.1
	c-0.7-1.5,0.8-1.2,1.4-2.3c0.6-1,0.4-2.5,0.1-3.9L398.5,497.1z M451.8,481.2v-0.1l0,0v-0.1l0,0v-0.2v-0.1h0.1v-0.1v-0.1l0,0l0.1-0.1
	l0,0l0.1-0.1v-0.1h0.2v-0.2l0.1-0.1l0,0l0.1-0.2l0.2-0.1l0,0l0.2-0.2l0.1-0.1l0.3-0.3l0.1-0.1l0.3-0.2l0.2-0.1
	c0.7-0.6,0-1.7-0.8-2.7c-0.6-0.9,1.9-6.9,0.8-8.8c-1.4-2.2-1.1-4.6,0.9-6.3c0.5-0.3,2.2,2.1,2.2,2.1s-1,0.8-1.2,1.2
	c-0.1,0.3,0,1.8,0,2.4c0,0.5,1.3,0.9,1.8,1c0.5,0.2,0.2,1.1,0.2,1.5c0,0.5-1.4,0-1.6,0.2c-0.4,0.1,2.1,4.2,2.4,5.2
	c0.3,1.2-0.1,2.3-0.6,2.9c-0.4,0.6,0.5,1.9,1.2,2.2c0.6,0.3,0.8,0.9,0.3,2.3c-0.6,1.5-0.5,2.4-0.5,5.2c1.4,0.1,5.7,0,7.5-1.2
	c1.6-1.1,2.6-4.8,1.5-9c-1.6-6.6-6-15.1-7.8-23.6c-1.8-8.7-3.2-19.9-4.2-30.5c-1.1-10.3-6.1-23.6-12.6-36.5
	c-0.2-0.6-1.8-3.1-3.8-3.6c-1.3-0.5-3.3,1.9-3.4,4.5c-0.3,2.4-1.7,9.4-3.8,13.7l-13.5,66.1c0.8,1.1-1,2.7,0.3,3.8
	c0.3,0.3,1,0,1.5,0.1c1.5,1,0,2.7,0.7,3.7c0.1,0.3,1.2,0.3,1.5-0.4c1.5,1.1,0,1.9,0,2.9c0.6-0.1,0.9,0.1,1.2,0.6
	c-0.9,0.3-0.8,1.2-0.4,1.7c0.4,0.3,1.7-0.4,2.1,0.6c0.3,0.4-0.1,0.9-0.6,1L451.8,481.2z M432.6,400.5l-0.2-0.2l-0.1-0.1l-0.1-0.2
	l-0.1-0.1l-0.2-0.2l-0.3-0.3l-0.1-0.1l-0.3-0.3l-0.1-0.1l-0.3-0.3l-0.1-0.3l-0.3-0.1l-0.3-0.3l-0.2-0.3l-0.6-0.6l-0.5-0.6l-0.3-0.3
	l-0.2-0.3l-0.3-0.3l-0.1-0.3l-0.3-0.3l-0.1-0.3l-0.1-0.4l-0.1-0.3l-0.3-0.3l-0.2-0.3v-0.3l-0.2-0.5l-0.1-0.3v-0.3
	c-0.6-3.4-1.1-6.1-2.4-9c-1.4-2.8-6.2-4.5-8.8-0.1c-14.4,23.8-18.9,39-22.2,52.3c-3.9,15.6-4.8,41-4.5,56.7l0.3,4.2l9.9,1.2
	c0-0.7,1-1.5,2.1-1.2c0-1.5-0.7-2.4-1.8-3.3c1.8-1,1.5-4.2,4.1-3.4c-0.2-1.2,0.3-2.1,1.2-2.7c0.3-0.4,0.8,0,1.1,0.5
	c0.8-0.8,0.8-2.1,1.6-2.1c1.7,0,3.4-0.4,5.1,0.5c0.5-4.1-2.6-6.3-5.1-9.2c-0.2,0.6,0.3,0.9,0.4,1.2c0.6,1.4-1.2,0.9-1.5,1.7
	c2.3-0.6,3.3,1.8,4.4,3.5c0.1,0.3-0.4,0.7-1,0.4c-0.3-0.1-0.6-0.8-1.1-0.4c-1.4,1.3-2.7,0.6-4.1,0.1c-0.6-0.1-1,0.9-1.7,1.5
	c-1.1,0.5-1.6-0.5-2.2-1.1c1.9-0.7,1.2-2.7,2.2-4c0.6,0.7,1.7,0.7,1.5,0c-0.4-2.2,1.7-1.8,1.2-3.9c-0.1-0.1-1.6,0.1-1.4-0.6
	c0.3-1.2,2.6-0.1,3.1-1.6c0.4,0.3,0.9,1.1,1.1,0.9c0.9-0.1,0.9-1.9,1.8-1.9c2.2,0.5,0.6,3.6,1.8,4c0.8,0.3,0.2-2.5,1.5-2.2
	c1.6,0.3,2.2,2.1,1.2,3.7h1.2c-0.1-0.6,0-0.9,0.6-1c0.3-0.2,0.8,0,1.1-0.2c0.1-0.1,0.1-0.7,0-1c-0.3-0.9-1.4-0.5-1.7-0.8
	c-1.8-1.8-0.6-4.2,1.1-5.5c-0.6-0.6-0.8-1.7-1.7-2.3c0.9-1.7,3.3-1.1,4.3,0.1L432.6,400.5z M451.8,481.2v0.6v0.8v1.4v1.2v1.4
	l-0.1,1.4l-0.1,1.3l-0.3,2.6l-0.1,1.4v1.3l-0.1,1.2v1.4v0.6v0.7v0.6l0.1,0.6v0.7l0.1,0.6l0.1,0.6l0.1,0.8c-0.6,0-1.6-0.3-1.5,0.5
	c0.3,1.9-2.1,3.1,0.3,4.6c0.3,0.3-0.1,0.8-0.6,1.1c0.7,0.6,1.5,1.2,1.2,2.2c-0.6-0.1-1.2,0.3-1,0.6c1.2,1.5,0,6.4-0.1,6.6
	c-2.4,1-2,3.5-2.7,5.3c-0.8-0.8-0.8-1.8-1.8-2.2c-0.4-0.2-0.9,0.1-1.1,0.6c-0.1,0.7,1.2,1.5,0.5,2.1c-1.2,0.7-2.3-1.4-3.2-0.9
	c-1.6,0.8-0.1,2.3,0.5,2.6c1.3,0.4,3-0.3,4.5-0.5c-0.2,0.9,0.8,3.9,2.2,2.2c0.3,1.4-0.3,2.3-1.6,2.4c0-0.6,0.3-1.2,0-1.7
	c-2.4-2.8-6.9-1-8.6,1.7c-1.4-0.9,0.8-1.7,0-2.4c0.8-0.1,2.3,0.2,2-0.3c-1.1-1.8,1.5-5-1.4-5c-0.6,0-2.7,1.4-2.4,0.3
	c0.4-2,4.2-3.2,3.1-5.5c-0.4-1.2-1.3-2.1-2.7-2.7c-0.9-0.6-2.4-1.2-3.7-0.9c-0.6-3.2,4.6-4.2,4.1-6.6c-0.6-1.5-3.6-2.1-3.5-4.6
	c0.6,0.1,1.1-0.2,1.1-0.6c0-0.8-1.4-0.3-1.5-0.6c-0.4-1.2,0.9-2.4-0.8-2.6c-0.9-0.1-1,1.7-2.2,1.9c0.1-1.6-1.5-2.5-2-3.9
	c-0.3-1.1,2.9,0,1.8-1.5c-1.5-2.1-5.4-1.3-4.4-4.7c0.1,0.6,0.9,2.3,1.6,1.7c1.6-1.4-0.7-2.5-1-3.9c-0.5-1.6,1-3.1,0.5-4.5
	c-0.3-0.9-0.6-1.8-1.6-2.4L451.8,481.2z M393.3,518.1V518h0.2l0,0l0,0h0.1l0,0l0,0l0,0h0.1l0,0l0,0h0.2l0,0l0,0l0,0h0.1v-0.2l0,0
	l0,0l0,0h0.1l0,0v-0.2l0,0l0,0l0,0h0.1v-0.2l0,0l0,0v-0.1l0,0c0.2-0.9-0.4-1.8-1.2-1.9c-1.2-0.5-1.8,0.7-1.5,1.9
	C391.8,518.1,392.5,518,393.3,518.1z M385.9,530.5L385.9,530.5L385.9,530.5L385.9,530.5L385.9,530.5L385.9,530.5L385.9,530.5
	L385.9,530.5L385.9,530.5L385.9,530.5L385.9,530.5v0.2l0,0l0,0l0,0l0,0l-0.1,0.2l0,0l0,0l0,0v0.1l0,0l0.1,0.2l0,0l0,0v0.2l0,0l0,0
	l0,0v0.1l0,0l0,0l0,0l0,0c0.5,0.9,1.2,0.9,1.7,0C386.5,531.5,387.9,529.8,385.9,530.5z M388.6,524.2L388.6,524.2v0.2v0.1h-0.1
	l-0.1,0.3v0.1l-0.1,0.3l-0.1,0.1l-0.1,0.2l-0.2,0.3v0.2l-0.1,0.2v0.1l-0.1,0.2v0.1l0,0l-0.1,0.1v0.1l0,0v0.2l-0.1,0.1v0.2l0,0v0.2
	c0,0.4,0.8,1,1.1,1c1.2-0.6,2.2-1.8,2.1-3.3C390.3,524.7,389.4,524.4,388.6,524.2z M414.6,467.7v0.1l0,0h0.2v0.2l0,0l0,0v0.1l0,0
	l0,0v0.1l0,0l0,0v0.1l0,0v0.1l0,0l0,0v0.2l0,0v0.1l0,0l0,0l0,0l-0.2,0.2l0,0l0,0l0,0l0,0l0,0v0.1h-0.1l0,0l0,0l0,0l0,0h-0.2l0,0v0.1
	l0,0h-0.1l0,0l0,0c-2.5,0.6-5.4-0.6-7.5,0.3c-0.9,0.6-1.9-0.9-1.4-1.9c1.2-1.8,2.6-1.8,4.5-0.3C411,468.3,413.3,465.9,414.6,467.7z
	 M411.9,472.2L411.9,472.2h-0.1l0,0l0,0l0,0l0,0h-0.2l0,0l0,0l0,0l0,0h-0.2l0,0l0,0l0,0h-0.2l0,0l0,0l0,0h-0.1l0,0H411l0,0h-0.1l0,0
	c-0.5-0.3-0.8-0.6-0.6-1.1c0.2-0.4,0.6-0.9,1.1-0.6C411.9,470.8,413.4,471.2,411.9,472.2z M407.2,464.3v0.2h-0.1v0.1l-0.1,0.1l0,0
	l-0.1,0.2v0.1h-0.2v0.1h-0.1v0.2h-0.1l-0.1,0.1l0,0l-0.1,0.2h-0.1l0,0l-0.2,0.2h-0.1h-0.1v0.1h-0.2h-0.1H405h-0.1l0,0h-0.1h-0.2
	h-0.1h-0.1h-0.2h-0.1c-0.5-0.1-0.7-0.6-0.5-0.9c0.9-0.9,1.8-2.3,3.3-1.8C407.1,463.4,407.4,464,407.2,464.3z M413.7,463.7
	L413.7,463.7L413.7,463.7L413.7,463.7l-0.1-0.2l0,0l0,0l0,0l0,0l0,0l0,0l0,0v-0.1l0,0l0,0l0,0l0,0l0,0v-0.1l0,0l0,0l0,0l0,0l0.1-0.1
	l0,0l0,0l0,0v-0.1l0,0h0.1l0,0l0,0v-0.2h0.2l0,0l0,0l0,0l0.2-0.1l0,0l0,0l0,0c0,0.6,2.1,0.8,0.4,1.7
	C414.4,464.3,413.8,464,413.7,463.7z M449.1,514.1L449.1,514.1v-0.1l0,0l0,0l0,0v-0.2l0,0h-0.1l0,0v-0.2l0,0l0,0h-0.2v-0.1l0,0l0,0
	h-0.1l0,0l0,0l0,0h-0.2l0,0l0,0l0,0l0,0l0,0h-0.2l0,0l0,0l0,0l0,0l0,0l0,0l0,0h-0.1l0,0l0,0l0,0l0,0l0,0l0,0c-1.2,1.4-2,3.9,0,4.3
	C448.6,517.8,449.2,514.5,449.1,514.1z M448.6,511.2h-0.2l0,0l0,0l0,0l0,0l0,0l0,0l0,0h-0.2l0,0v-0.2l0,0l0,0l0,0l0,0h-0.1l0,0l0,0
	v0.2l0,0l0,0l0,0H448l0,0l0,0l0,0h-0.1l0,0v0.1l0,0h-0.2l0,0l0,0v0.1l0,0l0,0l0,0v0.1h-0.1l0,0l0,0l0,0l0,0l0,0l0,0v0.2l0,0
	c0,0.3,0.7,0.9,1,0.9C449.7,512.5,449.1,511.6,448.6,511.2z M448,506.7L448,506.7v-0.1l0,0l0,0l0,0h-0.1v-0.1l0,0l0,0l0,0l0,0l0,0
	l-0.2-0.2l0,0l0,0l0,0l0,0l0,0l0,0l0,0l0,0h-0.1l0,0l0,0l0,0l0,0l0,0l0,0l0,0l0,0c-0.5,0-0.9,0.5-0.6,0.9c0.1,0.4,0.6,0.9,1,0.6
	C448.2,507.6,448.2,507,448,506.7z M436.8,496.5l-0.1-0.2h-0.2v-0.1h-0.1v-0.2h-0.1v-0.1H436v-0.2l-0.2-0.1l0,0v-0.1v-0.2h-0.1v-0.1
	V495v-0.1l0,0v-0.1v-0.1l-0.2-0.2v-0.3v-0.3v-0.1v-0.3v-0.1c0-0.6-0.6-0.9-1-0.6c-1.5,0.8-1.2,2.4-0.1,3.5c0.7,0.8-1.4,0.2-0.9,0.9
	C434.4,498.6,435.8,496.8,436.8,496.5z M428.1,491.1l0.3,1.1c0,0,0.6,0.1,1.2,0.1c0.6,0.1,0.6,0.3,0.8,0c0.1-0.3,0.1-1-0.1-1.4
	c-0.5-0.3-1.5,0.1-1.5,0.1H428.1z M445.2,519.2V519l0,0l0,0v-0.2H445l0,0l0,0l0,0v-0.1l0,0h-0.1l0,0l0,0v-0.1l0,0h-0.2l0,0l0,0l0,0
	h-0.1v-0.1l0,0l0,0h-0.1l0,0l0,0h-0.2l0,0v0.1l0,0l0,0h-0.2l0,0l0,0l0,0l0,0c-1.5,1,0.5,1.3,0.6,1.5
	C445.6,520.7,445.3,519.6,445.2,519.2z M440.1,511.8v-0.2l0,0l0,0l0,0l0,0v-0.1l0,0h-0.2l0,0l0,0v-0.1h-0.1l0,0v-0.1h-0.1l0,0l0,0
	h-0.2l0,0v-0.2h-0.1l0,0h-0.2l0,0l0,0H439l0,0l0,0h-0.1v0.2h-0.2l0,0l0,0h-0.2l0,0l0,0l-0.1,0.1c-1,0.6-1,2.1,0,2.4
	C439.3,513.9,438.9,512,440.1,511.8z"/>
<path id="path16748" fill="#007AC2" d="M449.7,540.6v0.2l0,0v0.1v0.2v0.1l0,0v0.2v0.1l0,0l0.1,0.1v0.2v0.1v0.2l0.1,0.1v0.3l0.1,0.2
	v0.1l0,0l0.1,0.2v0.1l0,0v0.2v0.1v0.1l0,0v0.2v0.1v0.1c-0.6-0.3-0.9,0-1,0.5c-0.2,0.7-0.5,1.8,0.5,2.3c0.4,0.2,0.9,0,1.2,0
	c-0.3,0-0.9,0-1,0.2c-1.2,0.9-1.7,2.5-0.1,3.3c0.6,0.1,0.9-0.2,1.2-0.6c-0.3,0.8,0.9,0.9,0.6,1.7c-1.5,2.2-5.3,2.1-5.3,0.1
	C446.5,547.8,446.5,543.5,449.7,540.6z"/>
<path id="path16750" fill="#007AC2" d="M431.1,506.6h-0.1h-0.1l-0.3-0.1l-0.3-0.2h-0.3h-0.2l-0.1-0.1h-0.2l-0.1-0.2h-0.1l-0.2-0.1
	h-0.1l-0.2-0.1h-0.1v-0.1l-0.1-0.2h-0.2l-0.1-0.1v-0.1l-0.1-0.2v-0.2l0,0l0,0l-0.1-0.2l0,0v-0.1l0,0v-0.1l0,0v-0.1l0,0V504v-0.1l0,0
	v-0.1l0,0l0.1-0.1l0,0v-0.1c0.5-0.7,1.4,2.2,2.6,0.4c0.3-0.6-0.1-0.9-0.6-1.1c0.4-0.3,0.7-0.6,0.6-1.2c0.8,0,1.7-0.3,1.7,0.6
	c0,2-1.7,2.4,0.8,3.3C431.7,505.6,433.2,507.2,431.1,506.6z"/>
<path id="path16752" fill="#007AC2" d="M409.6,499.8h-0.2v0.1h-0.1l0,0l0,0h-0.1v0.2l0,0H409h-0.2h-0.1h-0.2l0,0h-0.1h-0.1h-0.1l0,0
	H408l-0.1-0.2h-0.1h-0.1l-0.3-0.1h-0.1h-0.1l-0.1-0.2h-0.2l0,0h-0.1h-0.1h-0.1H406h-0.1h-0.2l-0.1,0.2c-0.3,0-0.7-0.7-0.4-0.9
	c1.5-0.5,3-0.5,4.5,0C409.6,498.9,409.8,499.6,409.6,499.8z"/>
<path id="path16754" fill="#007AC2" d="M409.6,493.7L409.6,493.7L409.6,493.7l-0.2-0.2l0,0l0,0l0,0v-0.1l0,0h-0.1l0,0l0,0v-0.1l0,0
	h-0.1l0,0l0,0l0,0l-0.1-0.1l0,0l0,0l0,0h-0.2l0,0l0,0l0,0h-0.1l0,0l0,0h-0.2l0,0l0,0h-0.1c0.9-1.4,2.4-1.8,3.4-2.8
	C412,492,409.6,492,409.6,493.7z"/>
<path id="path16756" fill="#007AC2" d="M415.9,486.9h-0.1l0,0v-0.2h-0.1l0,0v-0.1l0,0l0,0h-0.1l0,0l0,0l0,0l0,0l0,0v-0.1l0,0l0,0
	h-0.1l0,0l0,0l0,0l0,0l0,0v-0.1l0,0l0,0c0-0.4,0.6-0.7,1.1-0.4c0.4,0.1,1,0.7,1,1.1C417.3,487.7,416.4,485.9,415.9,486.9z"/>
<path id="path16758" fill="#007AC2" d="M418.6,480.6h-0.1l0,0h-0.2h-0.1v0.1H418l0,0h-0.1l0,0l0,0h-0.2l0,0l0,0l-0.1-0.1l0,0l0,0
	h-0.1l0,0l0,0h-0.1v-0.1l0,0h-0.1l0,0v-0.1l0,0l0,0l0,0l0,0l-0.1-0.1l0,0l0,0l0,0h2.2C419.1,480.3,418.9,480.6,418.6,480.6z"/>
<path id="path16760" fill="#007AC2" d="M420.9,481.2L420.9,481.2L420.9,481.2v-0.1l0,0l0,0v-0.1l0,0l0,0l0,0v-0.2l0,0l0,0l0.1-0.1
	l0,0l0,0l0,0l0,0v-0.1l0,0h0.1l0,0v-0.1l0,0l0,0h0.1l0,0l0,0v-0.1l0,0h0.2l0,0l0,0C421.6,480.6,421.3,480.9,420.9,481.2z"/>
<path id="path16762" fill="#007AC2" d="M419.9,478.4L419.9,478.4L419.9,478.4L419.9,478.4L419.9,478.4h-0.2l0,0l0,0l0,0l0,0l0,0l0,0
	l0,0l-0.2-0.1l0,0l0,0l0,0l0,0l0,0l0,0l-0.1-0.2l0,0l0,0l0,0l0,0l0,0l0,0v-0.1l0,0h-0.2l0,0l0,0l0,0l0,0l0,0l0,0
	c0.2-0.5,0.8-0.9,1.1-0.6C420.7,477.7,420.3,478.4,419.9,478.4z"/>
<path id="path16764" fill="#007AC2" d="M407.8,489.7L407.8,489.7L407.8,489.7L407.8,489.7l0.1,0.2l0,0l0,0l0,0v0.1l0,0l0,0l0,0v0.2
	l0,0l0,0l0,0v0.1l0,0l0,0l0,0l0,0v0.1l0,0l0,0l0,0v0.2l0,0l0,0l0,0h-0.1v0.1l0,0l0,0c-0.1,0.2-0.8,0.2-1.1,0
	c-0.4-0.1-0.7-0.6-0.4-1.1C406.8,488.7,407.4,489.1,407.8,489.7z"/>
<path id="path16766" fill="#007AC2" d="M403.9,493.1L403.9,493.1L403.9,493.1L403.9,493.1L403.9,493.1L403.9,493.1L403.9,493.1
	L403.9,493.1v-0.1h-0.2l0,0l0,0l0,0l0,0l0,0l0,0h-0.1l0,0v-0.2l0,0l0,0l0,0l0,0l0,0l0,0h-0.2v-0.1l0,0l0,0l0,0l0,0l0,0l0,0l0,0l0,0
	l0,0l0,0l0,0l0,0l0,0l0,0c0.3-0.9,1.1-0.9,1.7,0C404.7,492.7,404.4,493.1,403.9,493.1z"/>
<path id="path16768" fill="#007AC2" d="M402.9,495.9L402.9,495.9L402.9,495.9L402.9,495.9v-0.2l0,0l0,0v-0.1l0,0l0,0v-0.1l0,0l0,0
	l0,0h-0.2v-0.2l0,0l0,0l0,0v-0.1h-0.2l0,0V495h-0.1l0,0v-0.1l0,0l0,0l0,0l-0.1-0.1c-0.1-0.5,0.3-1,0.6-0.9
	C403.8,494.2,403.6,495.1,402.9,495.9z"/>
<path id="path16770" fill="#007AC2" d="M403.5,499.8v0.1l0,0l0,0l0,0l0,0l0,0l0,0v0.2h0.2l0,0l0,0l0,0l0,0l0.1,0.1l0,0l0,0l0,0l0,0
	l0,0l0,0h0.2v0.2l0,0l0,0l0,0l0,0l0,0l0,0l0,0l0,0l0,0c0,0.3-0.3,0.4-0.6,0.6c-0.4-0.6-0.9-1.4-1.1-2.2c0.3,0,0.9-0.1,1.1,0
	C403.5,499.1,403.3,499.5,403.5,499.8z"/>
<path id="path16772" fill="#007AC2" d="M426,530.7h0.1l0,0h0.1l0,0l0,0h0.1l0,0l0,0l0.2,0.2l0,0l0,0l0,0l0,0l0,0v0.1l0,0l0,0l0,0
	l0,0v0.2l0,0l0,0l0,0v0.2l0,0l0,0v0.1h-0.2l0,0v0.2l-0.1,0.1l0,0v0.2l-0.1,0.1l0,0l-0.1,0.2v0.1l0,0l0,0v0.2l0,0v0.2h-0.1l0,0v0.1
	l0,0l0,0v0.2l0,0l0,0h0.1v0.2l0,0l0,0v0.1c-0.6,0-1.3,0.2-1.5-0.1C423.7,531.9,425.4,530.7,426,530.7z"/>
<path id="path16774" fill="#007AC2" d="M426.6,525.3L426.6,525.3h0.2l0,0l0,0l0,0h0.1l0,0h0.1l0,0h0.1l0,0h0.1h0.1l0,0h0.1l0,0h0.1
	c-0.3,0.6,0.1,0.9,0.6,1.2c-0.9-0.2-2,0.3-2.3-0.6C426.1,525.8,426.4,525.4,426.6,525.3z"/>
<path id="path16776" fill="#007AC2" d="M433.9,528.2L433.9,528.2L433.9,528.2v0.1l0,0l0,0l0,0l0,0l0,0l0,0v0.1l0,0l0,0l0,0l0,0l0,0
	l0,0v0.2l0,0l0,0l0,0l0,0l0,0l0,0l0,0l0,0l0,0v0.2l0,0l0,0l0,0l0,0l0,0l0,0l0,0h-0.1l0,0l0,0l0,0l0,0l0,0l0,0l0,0l0,0l0,0l0,0l0,0
	h-0.1l0,0l0,0l0,0l0,0l0,0l0,0l0,0l0,0l0,0h-0.1l0,0l0,0l0,0l0,0v-0.2l0,0l0,0c-0.3-0.2-0.1-0.6-0.1-1
	C433.6,527.7,433.8,528,433.9,528.2z"/>
<path id="path16778" fill="#007AC2" d="M444.3,534.7l-0.2-0.1H444l-0.1-0.2l-0.2-0.1l-0.1-0.1l0,0l-0.2-0.2l-0.2-0.2l-0.1-0.1l0,0
	l-0.1-0.1v-0.2l-0.1-0.2l-0.1-0.1V533l-0.1-0.2v-0.1v-0.2h-0.2v-0.2v-0.1v-0.2v-0.1v-0.2v-0.1v-0.2v-0.1v-0.2v-0.3l0.2-0.2v-0.2
	v-0.1c1.1-2,3.6-2,3.4,0c0,1.8-0.6-0.9-1.2-0.6c-2.1,1.5-0.8,3.3,1,4C445.3,534.3,444.6,534.9,444.3,534.7z"/>
<path id="path16780" fill="#007AC2" d="M441.9,544L441.9,544L441.9,544h0.1l0,0h0.2l0,0l0,0l0,0h0.1l0,0l0,0l0,0v0.2l0,0h0.2l0,0
	l0,0l0,0v0.2l0,0l0,0l0,0l0,0l0,0v0.1l0,0l0,0l0,0v0.1l0,0v0.2l0,0l0,0v0.1h-0.2v0.1l0,0v0.2l0,0v0.2l0,0l0,0l0,0l0,0v0.2l0,0l0,0
	l0,0l0,0v0.1l0,0h0.2c-0.8,0-1.4,0.1-1.8-0.6c-1,0.8-0.1,2-0.6,2.7c-0.2,0.3-0.7,0.3-1,0c-1.1-0.9,0.1-3-1.2-3.8
	c-0.2,0-0.8,0.5-0.5,1c-0.3-0.3-1.4,0.8-1.2-0.6c1.9,0.4,1.7-1.8,2.8-2.1C440.4,542.1,440.5,543.9,441.9,544z"/>
<path id="path16782" fill="#007AC2" d="M436,547.9l0.1,0.2l0,0v0.2l0,0v0.1h0.1v0.2l0,0l0,0v0.1l0,0l0,0l0,0h0.1v0.2l0,0l0,0l0,0
	l0,0l0.2,0.1l0,0l0,0l0,0l0,0h0.1c0.3,0.2,0.9,0,1.1,0.2c1.5,3.1-0.8,7.7-3.9,7.5c-0.4,0,0.9-1.5,0.6-2.5c1.8,0,2.5-1.7,3.1-2.8
	c0.8-2-3-1.7-2.5-3.9C435.4,547.5,436,547.7,436,547.9z"/>
<path id="path16784" fill="#007AC2" d="M433.9,545.7L433.9,545.7h-0.1l0,0l0,0l0,0h-0.1l0,0l0,0l0,0l0,0h-0.1l0,0l0,0l0,0h-0.1l0,0
	l0,0l0,0l0,0l-0.1-0.1l0,0l0,0l0,0l0,0H433l0,0l0,0l0,0l0,0l0,0v-0.2h-0.1l0,0l0,0l0,0l0,0l0,0v-0.2l0,0l0,0l0,0h-0.2l0,0v-0.2l0,0
	l0,0l0,0l0,0l0,0v-0.1l0,0l0,0l0,0l0,0l0,0v-0.1h0.2l0,0l0,0l0,0v-0.2l0,0l0,0l0,0c0.3-0.3,1.4-0.4,1.5,0.4
	C434.4,545.2,434.1,545.6,433.9,545.7z"/>
<path id="path16786" fill="#007AC2" d="M432.1,548.9L432.1,548.9L432.1,548.9L432.1,548.9L432.1,548.9H432l0,0l0,0l0,0l0,0v-0.2
	h-0.2l0,0l0,0l0,0l0,0l0,0l0,0v-0.1l0,0h-0.1v-0.2l0,0v-0.1l0,0v-0.2l0,0v-0.2l0,0l-0.1-0.1l0,0v-0.1v-0.2l0,0v-0.1v-0.2v-0.1h0.1
	v-0.1l0,0v-0.2C432,547.5,433.3,548.6,432.1,548.9z"/>
<path id="path16788" fill="#007AC2" d="M433.3,551.8L433.3,551.8L433.3,551.8v-0.1l0,0l0,0l0,0l0,0l0,0l0,0l0,0v-0.1l0,0l0,0l0,0
	l0,0l0,0l0,0l0,0v-0.2l0,0l0,0l0,0l0,0l0,0l0,0l0,0l0,0l0,0v-0.1l0,0l0,0h0.1l0,0l0,0l0,0l0,0l0,0l0,0l0,0l0,0l0,0l0,0l0,0l0,0h0.1
	l0,0l0,0l0,0l0,0l0,0l0,0l0,0l0,0l0,0h0.1l0,0l0,0l0,0l0,0l0,0l0,0v0.1l0,0h0.1c0.1,0.2,0,0.6,0,1
	C433.8,552.3,433.5,552,433.3,551.8z"/>
<path id="path16790" fill="#007AC2" d="M432.1,556.4L432.1,556.4L432.1,556.4L432.1,556.4L432.1,556.4L432.1,556.4H432v0.2l0,0l0,0
	l0,0h-0.2l0,0l0,0l0,0h-0.1l0,0l0,0l0,0h-0.1l0,0l0,0l0,0h-0.1l0,0l0,0l0,0l0,0l-0.2-0.2l0,0l0,0l0,0l0,0l0,0
	c-0.3-0.3-0.3-0.8,0-1.1c0.2-0.2,0.8-0.2,0.9,0C432.3,555.6,432.3,556.1,432.1,556.4z"/>
<path id="path16792" fill="#007AC2" d="M432.1,558.8v0.2l0,0l0.1,0.2v0.1l0,0v0.2l0,0v0.2l0,0v0.1v0.2l0,0v0.1l0,0v0.2l0,0v0.1l0,0
	l-0.1,0.2v0.2l-0.1,0.1l-0.2,0.2l-0.1,0.1l0,0l-0.1,0.2l-0.1,0.1l-0.2,0.1h-0.2l-0.1,0.2l-0.3,0.2h-0.1l-0.3,0.2l-0.3,0.3l-0.5,0.2
	h-0.1l-0.1,0.1H429l-0.1,0.2c0.4,0.3,0.7,0.6,0.6,1.1c-0.6,1.7-3,0.6-3.1,1.8c-0.1,2.1-1.4,1-2.4,2.2c-0.3,0.2,0,0.8-0.2,1
	c-0.1,0.5-0.6,0.9-1,0.6c-0.5-0.3-0.6-0.8-1.2-0.6c-0.2-1.2,0.1-2.1,1.2-2.8c-0.8-0.4-1.4-1.4-1.6-1.4c-3.1,0.2-4.8-2.4-6.3-4.8
	c2-0.5,2.5-2.4,2.3-4c0.6,0.1,1.3-0.2,1.6,0.6c0.4,1.6-2.4,2.8-0.4,3.9c0.6,0.3,1.5,0,2.1,0.2c1.1,0.3,0.9,1,0.1,1.7
	c2.3,1.4,2.6,3.3,3.3,5.7c1.4-1.5,2-3.9,3.9-4.3c1.9-0.5,1.2-3.6,3-4.7C430.9,558.4,432,558.4,432.1,558.8z"/>
<path id="path16794" fill="#007AC2" d="M424.3,562.5h-0.2l0,0l0,0l0,0l0,0l0,0l0,0l0,0l0,0l0,0l0,0l0,0l0,0H424l0,0l0,0l0,0v-0.1
	l0,0h-0.1l0,0l0,0v-0.2l0,0l0,0l0,0l-0.2-0.1l0,0l0,0v-0.1l0,0l0,0l0,0l0,0l0,0l0,0v-0.2l0,0l0,0l0,0l0,0l0,0v-0.2l0,0l0,0l0,0h0.2
	l0,0l0,0v-0.2c0.6-0.7,1.3-1.5,2.1-2.2C426.6,561,425.7,561.8,424.3,562.5z"/>
<path id="path16796" fill="#007AC2" d="M422.1,559.2L422.1,559.2h-0.1l0,0l0,0l0,0l0,0h-0.1l0,0l0,0l0,0l0,0h-0.1l0,0l0,0l0,0l0,0
	h-0.1l0,0l0,0l0,0l0,0l0,0v-0.1l0,0l0,0l0,0l0,0l0,0l0,0l0,0v-0.2l0,0l0,0l0,0l0,0l0,0v-0.2l0,0l0,0v-0.2l0,0l0,0v-0.2h0.1l0,0l0,0
	v-0.1l0,0l0,0l0,0l0,0l0,0l0,0v-0.1l0,0l0,0h-0.1l0,0l0,0l0,0c0.6,0,1.6-0.3,1.6,0.4C423.1,558.9,422.4,559.1,422.1,559.2z"/>
<path id="path16798" fill="#007AC2" d="M410.7,565.4L410.7,565.4l-0.1,0.2h-0.2l0,0h-0.2h-0.1l0,0h-0.1l0,0h-0.1l0,0h-0.1l0,0v-0.2
	h-0.2l0,0l0,0l-0.1-0.1l0,0l0,0h-0.1v-0.2v-0.2H409v-0.1l-0.2-0.2v-0.1v-0.2l-0.1-0.1l-0.2-0.3v-0.1v-0.2l-0.1-0.1v-0.2l-0.1-0.2
	v-0.2l-0.1-0.2v-0.1l-0.2-0.2l0,0l0,0l-0.1-0.1l0,0l0,0l-0.1-0.2l0,0c-1.1-0.5,0.5-2.6,1.5-3.5c0.6-0.6,1.4,0.8,1.4,1.1
	c0,1.9-1.5,3,0.7,4.6C411.3,564.5,411,565.2,410.7,565.4z"/>
<path id="path16800" fill="#007AC2" d="M413.5,566L413.5,566L413.5,566L413.5,566L413.5,566L413.5,566h-0.1l0,0v0.1l0,0l0,0l0,0l0,0
	h-0.1l0,0l0,0l0,0l0,0l0,0l0,0l0,0l0,0h-0.2l0,0l0,0V566l0,0l0,0l0,0l0,0l0,0l0,0l0,0l0,0l0,0h-0.1l0,0l0,0l0,0l0,0v-0.1l0,0l0,0
	l0,0l0,0l0,0l0,0l0,0l0,0l0,0v-0.2l0,0l0,0l0,0l0,0l0,0l0,0l0,0l0,0l0.1-0.1l0,0l0,0l0,0l0,0l0,0c0.3-0.2,0.7,0,1.1,0
	C414,565.7,413.8,565.8,413.5,566z"/>
<path id="path16802" fill="#007AC2" d="M412.3,569.3L412.3,569.3v0.2h-0.1l0,0l0,0l0,0l0,0H412v0.1l0,0l0,0l0,0h-0.1l0,0l0,0l0,0
	l0,0h-0.1l0,0l0,0l0,0v-0.1l0,0l0,0h-0.2l0,0l0,0l0,0l0,0l0,0l0,0v-0.2h-0.2l0,0l0,0l0,0l0,0v-0.2l0,0l0,0V569l0,0v-0.2h-0.2v-0.2
	l0,0l0,0v-0.1l0,0l0.2-0.2l0,0c0-0.5,0.6-1,0.9-0.6C412.6,568.2,412.6,569.1,412.3,569.3z"/>
<path id="path16804" fill="#007AC2" d="M415.3,570L415.3,570L415.3,570v0.2l0,0l0,0v0.1l0,0l0,0l0,0v0.1h0.1v0.2v0.1h0.1v0.2h0.1
	v0.2l0.1,0.1l0.1,0.2l0,0l0.1,0.2l0,0l0.2,0.1l0,0v0.1h0.1v0.2l0,0l0,0l0,0v0.1l0,0l0,0v0.2l0,0l0,0v0.1l0,0l0,0v0.2h-0.1l0,0v0.1
	l0,0c-0.2,0.3-0.8,0-1.1,0.1c-0.4,0.2-0.4,0.6-0.8,1.1c-0.1,0.3-0.6,0-0.4-0.6c0.6,0.1,1-0.2,1-0.6c0.1-0.3,0.1-0.8,0-1
	c0-0.5-0.5-0.8-1-0.6c0-0.3-0.2-0.8,0.1-1.1C414.4,569.9,414.9,570,415.3,570z"/>
<path id="path16806" fill="#007AC2" d="M418.6,570.6v-0.2l0,0l0,0v-0.1l0,0l0,0v-0.1l0,0l0,0V570l0,0l0,0l0,0v-0.1l0,0h0.1l0,0v-0.2
	l0,0l0,0l0,0h0.1v-0.1l0,0l0,0h0.1l0,0l0,0v-0.1h0.1l0,0l0,0c0.3-0.2,0.9-0.2,1.1,0c0.5,0.9-0.8,1-1.1,1.6
	C419.1,570.9,418.8,570.7,418.6,570.6z"/>
<path id="path16808" fill="#007AC2" d="M409.6,575.7v-0.3v-0.1l0.1-0.2V575l0,0l0.1-0.2v-0.1l0.1-0.1v-0.2h0.1v-0.1l0.2-0.2l0.2-0.1
	l0,0l0.1-0.2h0.2l0.1-0.3l0.3-0.1l0.2-0.2l0.3-0.1l0.1-0.2l0.1-0.1v-0.1h0.2l0.1-0.2v-0.1h0.1C412.2,573.9,411.4,575.3,409.6,575.7z
	"/>
<path id="path16810" fill="#007AC2" d="M405.9,573.3v-0.2h-0.2V573l0,0v-0.2l0,0v-0.1l0,0v-0.1l0,0l0,0v-0.2v-0.1v-0.2h0.2V572v-0.2
	l0.1-0.1l0,0l0.1-0.1l0.1-0.2l0,0l0.1-0.2l0.1-0.1l0.2-0.2l0.3-0.3l0,0l0.1-0.2l0.2-0.1v-0.1l0.1-0.2h0.1v-0.1l0.1-0.2v-0.1v-0.1
	c0.3-0.6-0.1-0.8-0.4-1.2c-0.3-0.5,0.1-0.8,0.4-1.1c0.5,0.8,1.5,0.5,1.6,0.6c0.6,1.5-1.8,1.5-2.1,2.8c-0.2,0.9,0.3,2-0.2,2.7
	C407.1,573.4,405.9,573.4,405.9,573.3z"/>
<path id="path16812" fill="#007AC2" d="M403.9,575.1l-0.2-0.1h-0.1l-0.2-0.2l0,0h-0.1h-0.1v-0.1H403h-0.1l0,0h-0.2h-0.2l0,0h-0.1
	h-0.1l0,0h-0.1l0,0H402l0,0l-0.1,0.1l0,0h-0.1v0.2l0,0h-0.2l0,0v0.1l0,0l0,0h-0.1v0.2l0,0v0.1l0,0h-0.2v0.2l0,0v0.1
	c-0.3,0.7,0,1.8,0,2.7c-2.4-1-0.7-3.6-1.8-5.1c0.6,0.1,0.9-0.2,1-0.6c0.2-0.6,0-1.3,0.2-2.1c0.1-0.4,0.6-0.9,1.1-0.6
	C403.2,571.4,403.5,573.1,403.9,575.1z"/>
<path id="path16814" fill="#007AC2" d="M405,576.7h0.1v0.2l0,0l0,0l0,0l0,0v0.1l0,0l0,0l0,0v0.2l0,0l0,0l0,0v0.1l0,0l0,0l0,0v0.1
	l0,0l0,0l0,0v0.2l0,0l0,0l0,0l0,0v0.1l0,0l0,0l0,0l0,0H405l0,0c-0.6,0.3-1.5,0.3-2.1,0c-0.3-0.3-0.2-1.4,0-1.5
	C403.5,575.9,404.5,576,405,576.7z"/>
<path id="path16816" fill="#007AC2" d="M403.9,566.6h0.1l0,0h0.2l0,0l0,0l0,0h0.1l0,0l0,0l0,0h0.1l0,0l0,0l0,0v0.1h0.2l0,0l0,0l0,0
	l0,0l0,0l0,0l0,0v0.2l0,0l0,0l0,0l0,0l0,0v0.1l0,0l0,0l0,0l0,0v0.2l0,0l0,0v0.2l0,0h-0.2v0.1l0,0l0,0v0.2l0,0l0,0l0,0l0,0l0,0l0,0
	l0,0v0.1l0,0h-0.1c0,0.8-0.9,0.5-1.5,0.5c0-0.5-0.2-1.2,0-1.7C403,566.4,403.6,566.6,403.9,566.6z"/>
<path id="path16818" fill="#007AC2" d="M412.5,546.8h-0.1l0,0h-0.1l0,0l0,0v-0.2H412l0,0l0,0l0,0h-0.1l0,0l0,0l0,0l0,0l0,0v-0.2l0,0
	l0,0l0,0h-0.1l0,0l0,0v-0.1l0,0l0,0l0,0l0,0l0.1-0.1l0,0V546l0,0v-0.2l0,0v-0.1l0,0l0,0l0.1-0.1l0,0v-0.2l0,0l0,0l0,0l0,0v-0.2l0,0
	l0,0l0,0h-0.1v-0.2l0,0l0,0l0,0h1.2C412.9,545.7,413.4,546.6,412.5,546.8z"/>
<path id="path16820" fill="#007AC2" d="M416.4,547.4L416.4,547.4L416.4,547.4h-0.2l0,0l0,0h-0.1l0,0l0,0l0,0h-0.1l0,0l0,0h-0.1l0,0
	l0,0l0,0l0,0l-0.1-0.2l0,0l0,0l0,0h-0.1v-0.1l0,0l0,0l0,0l0,0l-0.1-0.1l0,0l0,0l0,0v-0.2c0.6-0.3,0.9-1.5,1.5-0.9
	C417.1,546,417.3,547.1,416.4,547.4z"/>
<path id="path16822" fill="#007AC2" d="M420,547.2L420,547.2h-0.1l0,0l0,0l0,0l0,0v-0.1l0,0l0,0l0,0l0,0l0,0l0,0l0,0v-0.1l0,0l0,0
	l0,0l0,0l0,0v-0.2l0,0l0,0l0,0l0,0l0,0l0,0l0,0l0,0h0.1l0,0l0,0l0,0l0,0l0,0l0,0h0.1l0,0l0,0l0,0h0.1l0,0l0,0l0.1,0.2l0,0h0.1l0,0
	l0,0l0,0l0,0h0.2l0,0l0,0l0,0l0,0l0,0h0.2l0,0l0,0l0,0l0,0v-0.2l0,0C421,547.9,420,547.5,420,547.2z"/>
<path id="path16824" fill="#007AC2" d="M422.1,531.5L422.1,531.5h-0.1l0,0l0,0h-0.1l0,0l0,0h-0.1l0,0l0,0l0,0v-0.1h-0.1l0,0l0,0l0,0
	l0,0l0,0v-0.2l0,0l0,0l0,0l0,0l0,0V531l0,0l0,0l0,0v-0.1l0,0l0,0v-0.2l0,0v-0.2l0,0v-0.1h0.1v-0.2l0,0v-0.1l0,0l0,0l0,0V530l0,0l0,0
	l0,0l0,0l0,0l-0.1-0.2l0,0l0,0c0.6,0.2,0.9-0.4,1.2-0.4c0.8,0,0.6,1,0.5,1.5C423,531.2,422.4,531.5,422.1,531.5z"/>
<path id="path16826" fill="#007AC2" d="M418.2,532.1L418.2,532.1L418.2,532.1v-0.1l0,0l0,0l0,0l0,0l-0.1-0.2l0,0l0,0l0,0l0,0l0,0
	v-0.1l0,0h-0.1l0,0l0,0l0,0l0,0l0,0h-0.2l0,0l0,0h-0.1v-0.2h-0.1l0,0l0,0h-0.1l0,0l0,0h-0.1l0,0l0,0l0,0l0,0l0,0H417l0,0l0,0l0,0
	l0,0l0,0v-0.1l0,0l0,0l0,0l0,0l0,0l0,0l0,0v-0.2l0,0h0.1l0,0l0,0l0,0c0.4-0.5,1.5-0.5,1.9,0C419.7,531.8,418.6,531.8,418.2,532.1z"
	/>
<path id="path16828" fill="#007AC2" d="M417.6,527.4l-0.1,0.2l0,0h-0.1l0,0h-0.1l0,0H417l0,0l-0.1-0.2l0,0h-0.2l0,0h-0.1l0,0
	l-0.1-0.2l0,0h-0.2v-0.1h-0.1l0,0l-0.1-0.2h-0.1l-0.1-0.1l-0.1-0.1v-0.1h-0.1c0.9,0,1.9-0.9,2.7,0
	C418.2,526.7,417.9,527.4,417.6,527.4z"/>
<path id="path16830" fill="#007AC2" d="M380.2,512.9L380.2,512.9L380.2,512.9L380.2,512.9h-0.2l0,0l0,0l0,0l0,0h-0.1l0,0l0,0l0,0
	h-0.2l0,0l0,0l0,0l0,0l0,0h-0.1l0,0l0,0l0,0l0,0l0,0v-0.1l0,0l0,0l0,0l0,0l0,0l0,0l0,0v-0.2l0,0l0,0l0,0l0,0v-0.1l0,0v-0.2l0,0l0,0
	l0.1-0.2l0,0l0,0l0,0V512l0,0l0,0l0,0l0,0l0,0l0,0v-0.1l0,0l0,0h-0.1l0,0l0,0l0,0c0.4,0,0.9-0.2,1,0
	C381.1,512.1,380.7,512.7,380.2,512.9z"/>
<path id="path16832" fill="#007AC2" d="M374.5,519.2L374.5,519.2L374.5,519.2L374.5,519.2h-0.1l0,0h-0.2l0,0h-0.1l0,0h-0.1l0,0l0,0
	l0,0h-0.1l0,0l0,0l0,0h-0.1l0,0l0,0l0,0l0,0V519h-0.1l0,0l0,0c-0.3-0.3,0-0.7,0.6-0.4C374.2,518.7,374.4,518.8,374.5,519.2z"/>
<path id="path16834" fill="#007AC2" d="M375.1,526.3v0.2l0,0l0,0l-0.2,0.1l0,0l0,0l0,0v0.1l0,0l0,0h-0.1l0,0v0.1l0,0h-0.1l0,0l0,0
	l0,0l-0.2,0.2l0,0l0,0l0,0h-0.1l0,0l0,0l0,0l0,0l0,0h-0.2l0,0l0,0l0,0v-0.2l0,0l0,0l0,0h-0.1l0,0l0,0l0,0c-0.3-0.3,0-0.9,0.6-1
	L375.1,526.3z"/>
<path id="path16836" fill="#007AC2" d="M362.2,569.4v0.1l0,0l0,0l0,0v0.1l0,0h-0.1v0.2l0,0v0.1l0,0v0.2l0,0v0.1l0,0v0.3l0,0v0.1l0,0
	v0.2l0,0v0.2l0,0v0.1l0,0l0,0l0,0l0,0l0,0v0.2l0,0h-0.1l0,0l0,0l0,0l0,0l0,0l-0.1,0.2l0,0l0,0l0,0h-0.1l0,0l0,0
	c-0.9,0-0.7-1.5-0.5-2.1c1-1.7,3.6-0.8,5-2.3c0,0.5,0.1,0.9,0,1.1c-1.1,0.7-3.3,0.4-2.9,2.4c0-0.4,0.1-0.9-0.1-1.2
	C363,569.3,362.4,569.3,362.2,569.4z"/>
<path id="path16838" fill="#007AC2" d="M377.8,586.5l0.1,0.1l0.3,0.1l0.1,0.1l0.1,0.2l0.3,0.1h0.1l0.2,0.2l0.1,0.2l0.1,0.1h0.1
	l0.1,0.2h0.2l0.1,0.1h0.2l0.3,0.1h0.1h0.2l0.2,0.2h0.1h0.1h0.2h0.2h0.2h0.3h0.1h0.2h0.1h0.3l0.1-0.2h0.3h0.2l0.3-0.1
	c0,0.4,0.2,0.9-0.1,1.1c-1.8,1.8-4.2-1.1-6.1,0.8c0.4-1.7-1.1-2-2.3-1.8C375.9,586.9,376.8,585.8,377.8,586.5z"/>
<path id="path16840" fill="#007AC2" d="M380.2,585.3L380.2,585.3L380.2,585.3L380.2,585.3L380.2,585.3L380.2,585.3v0.1l0,0l0,0l0,0
	l0,0l0,0v0.2l0,0l0,0l0,0l0,0l0,0l0,0l0,0v0.2l0,0l0,0l0,0l0,0l0,0l0,0l0,0l0,0l0,0l0,0l0,0h-0.2v0.2l0,0l0,0l0,0l0,0l0,0l0,0l0,0
	l0,0l0,0l0,0l0,0l0,0h-0.1l0,0l0,0l0,0l0,0l0,0l0,0l0,0l0,0v-0.2l0,0l0,0h-0.2l0,0l0,0l0,0l0,0l0,0l0,0c-0.3-0.4-0.3-1.3,0-1.5
	C380.7,583.7,380.1,584.7,380.2,585.3z"/>
<path id="path16842" fill="#007AC2" d="M384.1,582.4L384.1,582.4L384.1,582.4L384.1,582.4L384.1,582.4v0.2l0,0h0.2l0,0l0,0l0,0l0,0
	v0.1l0,0l0,0l0,0l0,0l0,0l0,0v0.2l0,0l0,0l0,0l-0.2,0.1l0,0l0,0l0,0l0,0v0.2l0,0H384l0,0l0,0v0.1h-0.2l0,0l0,0l0,0h-0.2v0.1l0,0
	h-0.1c-0.5,0.2-0.8-0.1-1.1-0.6c-0.1-0.5,0.1-0.9,0.6-1.1C383.4,581.9,384,582.1,384.1,582.4z"/>
<path id="path16844" fill="#007AC2" d="M373.3,591L373.3,591L373.3,591L373.3,591h0.1v0.2l0,0l0,0l0,0l0,0v0.1l0,0l0,0l0.1,0.2l0,0
	l0,0v0.1l0,0h0.1l0,0v0.2l0,0l0,0l0,0l0.1,0.2l0,0l0,0l0,0h0.1l0,0h-1.8C373.3,592.2,372.6,590.2,373.3,591z"/>
<path id="path16846" fill="#007AC2" d="M371.8,589.8h-0.1h-0.1l0,0l0,0h-0.2l0,0h-0.2l0,0l0,0h-0.1l0,0v0.1h-0.2l0,0l0,0l-0.1,0.2
	l0,0l0,0v0.1l0,0h-0.2v0.2l0,0v0.1l-0.1,0.2v0.1l0,0v0.1l-0.1,0.2v0.1l0,0v0.2l0,0l-0.1,0.1l0,0l0,0l0,0v0.2l0,0l0,0l0,0H370l0,0
	v0.2l0,0l0,0l0,0h-0.1l0,0l0,0v-0.2h-0.2l0,0l0,0c-0.9-0.6,0.6-1.9,1.1-3.2c0-0.2,0.8-0.2,0.9,0.1
	C371.8,588.9,371.8,589.4,371.8,589.8z"/>
<path id="path16848" fill="#007AC2" d="M363.1,590.2v0.2l0,0l0,0v0.1l0,0v0.2H363v0.1l-0.2,0.1l0,0l-0.2,0.2h-0.2v0.1l-0.1,0.2h-0.2
	l-0.1,0.1l-0.3,0.2v0.2h-0.1l-0.1,0.1l0,0l-0.1,0.2v0.2h-0.2v0.1v0.1H361l0,0v0.2l0,0v0.1l0,0v0.1l0,0l0,0v0.2v0.1l0,0v0.2l0,0v0.1
	c-0.2-1.3,0.4-2.5,0.1-4c-0.1-0.6,0.9-0.6,1.5-0.3C363,589.4,363.3,590,363.1,590.2z"/>
<path id="path16850" fill="#007AC2" d="M351.1,601.1L351.1,601.1v0.1l0,0v0.1l0,0H351v0.2l0,0l-0.1,0.1l0,0l0,0h-0.1v0.2l0,0h-0.2
	l0,0l0,0l-0.1,0.1l0,0h-0.2l0,0h-0.1l0,0l0,0h-0.1l0,0h-0.1h-0.1l-0.1-0.1h-0.2h-0.1H349l-0.1-0.2h-0.2l-0.1-0.1h-0.2l-0.1-0.2
	l-0.1-0.1H348l-0.1-0.1v-0.2l-0.2-0.1h-0.1v-0.2l0,0l-0.1-0.1c1.3-0.4,2.2-2.2,3.3-1.5C351.1,599.2,351.3,600.4,351.1,601.1z"/>
<path id="path16852" fill="#007AC2" d="M350.4,611.2h-0.2l-0.1,0.2v0.1l-0.1,0.1l0,0l-0.1,0.1l-0.1,0.2l0,0l-0.1,0.2h-0.2v0.1h-0.1
	H349l-0.1,0.2l-0.2,0.1h-0.3l-0.1,0.1l-0.3,0.2h-0.1l-0.3,0.1l-0.1,0.1h-0.3l-0.1,0.2h-0.1c-0.4,0.3-1.8,0-0.9-0.9
	c0.1-0.2,0.9-0.3,0.9-0.6c0.3-0.9,0.1-1.6,0.1-2.4c0.6,0.2,1.4-0.1,1.7,0.6c0.5-0.3,0.9-0.6,0.5-1.1c-0.8-1.2-2-1.5-3.1-2.1
	c-0.6-0.2,1.2,0.2,1-0.8c1.1,1.4,3,1.8,3.9,3.5C351.1,610.2,350.7,610.7,350.4,611.2z"/>
<path id="path16854" fill="#007AC2" d="M350.4,607.2h-0.2v-0.2l0,0h-0.1l0,0l0,0v-0.2l0,0h-0.1l0,0l0,0v-0.2l0,0h-0.1l0,0l0,0l0,0
	h-0.1l0,0l0,0v-0.2h-0.1l0,0l0,0h-0.2l0,0l0,0h-0.1l0,0v0.2c-0.3-1,0.4-1.6,1.2-2.2C351.1,605.4,350.5,606.3,350.4,607.2z"/>
<path id="path16856" fill="#007AC2" d="M342.4,586.4h-0.1l-0.1,0.2v0.1H342l-0.1,0.1l0,0l-0.1,0.1l0,0v0.2l-0.2,0.1l0,0v0.2
	l-0.1,0.2l0,0v0.1v0.2v0.1l0,0v0.1l-0.1,0.2v0.1v0.3v0.3v0.1v0.3v0.3c-0.2,0.3-0.6,0.8-1.1,0.4c-0.5-0.1-0.8-0.4-0.6-1
	c0.3-0.9,2.4-0.6,1.5-1.5c-0.7-0.9-2.5,0-2.7-2C339.7,586.1,341.3,585.2,342.4,586.4z"/>
<path id="path16858" fill="#007AC2" d="M354.3,579.6v0.2h-0.1v0.1L354,580l0,0l-0.1,0.2l0,0l-0.1,0.1l0,0h-0.1l-0.2,0.2l0,0h-0.2
	v0.1h-0.1h-0.2l-0.2,0.2h-0.1l-0.1,0.1h-0.3l-0.1,0.2h-0.1l-0.3,0.1h-0.1c-0.6-2.2,0.6-1.8,2.1-3c0.3,0,0.1-0.6,0.1-0.9
	C353.4,578.2,354.9,578.6,354.3,579.6z"/>
<path id="path16860" fill="#007AC2" d="M334.5,594.3L334.5,594.3h0.1l0,0l0,0h0.1v-0.2l0,0h0.1l0,0l0,0h0.1V594h0.1l0,0l0.2-0.2l0,0
	v-0.1h0.1v-0.1l0.1-0.2l0.1-0.1l0,0v-0.2h0.1V593l0,0h0.2v-0.1h0.1l0,0l0,0h0.1v-0.2l0,0l0,0h0.2l0,0l0,0h0.1l0,0
	c0.7,0.2,0.4,0.9,0.6,1.7c-1.2-0.3-1.6,0.6-2.2,0.9C333.9,595.6,334.6,594.8,334.5,594.3z"/>
<path id="path16862" fill="#007AC2" d="M332.2,595.4L332.2,595.4L332.2,595.4l0.2,0.1l0,0l0,0l0.1,0.1l0,0l0,0l0,0h0.1v0.2l0,0l0,0
	l0,0v0.1h0.1l0,0l0,0v0.2l0,0l0,0l0,0l0,0l0,0v0.1l0,0l0,0l0,0l0,0l0,0l0,0l0,0l0,0v0.2l0,0l0,0h-0.1l0,0l0,0l0,0l0,0
	c-0.3,0.3-1.1,0.1-1.7,0.1c0.7-0.5,0.6-1.1,0.6-1.7C331.8,595.1,332.1,595.2,332.2,595.4z"/>
<path id="path16864" fill="#007AC2" d="M321.3,601.9l-0.1,0.2v0.2H321v0.2l-0.3,0.1l-0.2,0.3l-0.1,0.1l-0.3,0.1l-0.3,0.4l-0.3,0.2
	l-0.1,0.2l-0.1,0.3l-0.1,0.2l-0.3,0.2v0.1l-0.2,0.1l0,0l-0.2,0.2v0.1h-0.1c-0.4,0.8-0.3,2.1-1.4,2.7c-0.7,0.5-0.9-0.9-1.6-0.6
	c0.3-0.3,0.8-0.6,1.1-1.1s0-0.9-0.5-1c-0.5-0.1-0.9,0-1.2-0.1c-1.1-1.4-0.6-3.4,1.2-3.7c0.5,0,0.9,1.2,1.6,1.5
	c0.4,0.1,1.4,0.3,1.6-0.6c0.1-0.3,0-0.7,0-1c0.6,0.1,0.9-0.3,1.2-0.5C321,600.3,322.2,600.8,321.3,601.9z"/>
<path id="path16866" fill="#007AC2" d="M326.5,602.7h0.1l0,0l0,0l0.1-0.2l0,0l0,0v-0.1h0.1l0,0v-0.2l0,0l0,0v-0.2h0.1l0,0v-0.2l0,0
	v-0.1v-0.2v-0.1l0,0v-0.2v-0.1v-0.1l0,0v-0.2v-0.1l0,0v-0.2l0,0v-0.1l0,0l0,0l0,0v-0.1l0,0h0.1l0,0l0,0l0,0v-0.2l0,0l0,0h0.2l0,0
	l0,0l0,0h0.1l0,0l0,0c1.3,0.2,0.5,3-1,3.2C326.5,603.1,326.5,602.9,326.5,602.7z"/>
<path id="path16868" fill="#007AC2" d="M323.7,603.9L323.7,603.9L323.7,603.9L323.7,603.9v0.2l0,0l0,0h0.1v0.1l0,0l0,0v0.2l0,0h-0.1
	v0.2l0,0v0.1l0,0v0.1l0,0v0.2l0,0c-0.6,0-1.5,0.3-1.5-0.4c0-0.3,0.6-0.6,0.4-1.2C323.3,603.1,323.6,603.5,323.7,603.9z"/>
<path id="path16870" fill="#007AC2" d="M328.8,598.2v0.2l0,0l0,0v0.1l0,0l0,0v0.2l0,0l0,0h-0.1v0.1l0,0l0,0l0,0l0,0l0,0l0,0
	l-0.1,0.2l0,0l0,0l0,0l0,0l0,0h-0.1l0,0l0,0l0,0l0,0h-0.1l0,0l0,0h-0.1l0,0l-0.1-0.2l0,0l0,0h-0.2l0,0h-0.1v-0.1h-0.1l0,0h-0.2l0,0
	l0,0l0,0h-0.1l0,0l0,0l0,0c-0.3,0-0.9-0.8-0.4-0.9c0.3-0.1,0.6-0.4,1-0.6C328.6,596.7,328.6,597.7,328.8,598.2z"/>
<path id="path16872" fill="#007AC2" d="M296.5,622.5v0.2l0,0v0.2l0,0v0.1l0,0v0.1l0,0v0.2l0,0l0,0v0.2h0.1v0.2l0,0l0,0l0.2,0.1l0,0
	v0.2h0.1l0.1,0.1h0.1v0.2l0.3,0.1h0.1v0.1h0.2l0.1,0.2l0,0l0.1,0.1l0,0l0,0v0.2h0.1l0,0l0,0v0.1l0,0l0,0v0.2l0,0l0,0v0.1l0,0v0.2
	l0,0l0,0v0.1l0,0l-0.1,0.1l0,0c-0.1,0.3-1.1,0.2-1.6,0.2c0.1-1.4-0.9-2.7-0.5-4C296.3,622.2,296.5,622.3,296.5,622.5z"/>
<path id="path16874" fill="#007AC2" d="M301.2,624.7L301.2,624.7L301.2,624.7h0.1l0,0l0,0l0,0h0.1l0,0l0,0l0,0l0,0h0.1l0,0l0,0l0,0
	l0,0v0.2l0,0l0,0l0,0l0,0l0,0h0.2v0.1l0,0l0,0v0.2l0,0v0.1l0,0v0.2l0,0v0.1l0,0l0,0l0,0l0,0l0,0v0.1l0,0h0.1l0,0l0,0l0,0l0,0v0.2
	l0,0h0.1l0,0l0,0l0,0l0,0h0.1l0,0l0,0c-0.6,0-1.2,0.2-1.6-0.2C300.3,625.5,300.7,624.9,301.2,624.7z"/>
<path id="path16876" fill="#007AC2" d="M292.5,614.1L292.5,614.1h0.1l0,0l0,0v0.1l0,0l0,0l0,0l0,0l0,0v0.2l0,0l0,0l0,0l0,0l0,0l0,0
	v0.1l0,0l0,0l0,0l0,0l0,0l0,0l0,0v0.1l0,0h-0.1l0,0l0,0l0,0l0,0l0,0l0,0h-0.1l0,0l0,0l0,0l0,0l-0.2-0.1l0,0l0,0h-0.1l0,0l0,0h-0.1
	l0,0l0,0l0,0l0,0h-0.1l0,0l0,0l0,0l0,0l0,0l0,0h-0.2l0,0l0,0l0,0l0,0l0,0l0,0v-1C291.9,613.6,292.5,613.8,292.5,614.1z"/>
<path id="path16878" fill="#007AC2" d="M288.7,612.9v0.1v0.1v0.3v0.1v0.3v0.2v0.3v0.1v0.1v0.1v0.2l0,0v0.2l0,0v0.1v0.1h-0.1v0.1l0,0
	v0.2h-0.9C287.2,614.7,288,613.6,288.7,612.9z"/>
<path id="path16880" fill="#007AC2" d="M291,619.1h-0.1l0,0h-0.2l0,0h-0.1l0,0l-0.2,0.2l0,0l0,0l0,0h-0.2l0,0l0,0l0,0h-0.1l0,0l0,0
	v-0.2l0,0h-0.1l0,0l0,0l0,0l0,0l0,0c-0.3-0.2-0.2-0.9,0-0.9C290.7,617.7,290.7,618.6,291,619.1z"/>
<path id="path16882" fill="#007AC2" d="M293.2,616.8v0.2l0,0h-0.2h-0.1l0,0h-0.1l0,0h-0.1l0,0l0,0l0,0h-0.1l0,0l0,0l0,0h-0.1l0,0
	l0,0l0,0l0,0h-0.2v-0.2l0,0l0,0l0,0l0,0c-0.4-0.5,0-0.9,0.5-1C293.9,615.4,293.2,616.3,293.2,616.8z"/>
<path id="path16884" fill="#007AC2" d="M306.1,605.1L306.1,605.1L306.1,605.1L306.1,605.1L306.1,605.1v0.2l0,0l0,0l0,0l0,0l0,0l0,0
	v0.2h0.2l0,0l0,0l0,0l0,0l0,0l0,0l0,0v0.1l0,0l0,0l0,0l0,0l0,0l0,0l0,0l0,0h-0.2l0,0v0.1l0,0l0,0l0,0l0,0l0,0l0,0H306v-0.1l0,0l0,0
	l0,0h-0.2l0,0l0,0l0,0h-0.2l0,0h-0.1v-0.1l0,0l0,0h-0.1l0,0l0,0l0,0l0,0l0,0h-0.2l0,0l0,0l0,0l0,0l0,0h-0.1v0.1l0,0l0,0l0,0l0,0
	C304.9,604.4,306,605,306.1,605.1z"/>
<path id="path16886" fill="#007AC2" d="M310.8,602.7L310.8,602.7L310.8,602.7h0.2l0,0l0,0h0.1l0,0h0.2l0,0h0.2l0,0l0,0l0,0h0.2l0,0
	l0,0l0,0l0,0h0.1l0,0l0,0l0,0v0.1h0.1l0,0l0,0c0.2,0.1,0,0.6,0,1c-0.8-0.2-1.5,1-2.1,0.5c-0.3-0.3-0.3-1.2,0-1.5
	C309.9,602.7,310.3,602.7,310.8,602.7z"/>
<path id="path16888" fill="#007AC2" d="M312.4,601.1h-0.1l0,0h-0.2l0,0H312l0,0h-0.2h-0.1h-0.1h-0.2h-0.2l0,0h-0.2l0,0l0,0h-0.1l0,0
	h-0.2v-0.2h-0.1l0,0h-0.1v-0.1l0,0l0,0h-0.1l0,0v-0.2l0,0l0,0h-0.1v-0.1l0,0C310.9,600.6,311.8,600.1,312.4,601.1z"/>
<path id="path16890" fill="#007AC2" d="M413.5,480.6L413.5,480.6L413.5,480.6L413.5,480.6L413.5,480.6L413.5,480.6L413.5,480.6h-0.1
	l0,0v-0.1l0,0h-0.1l0,0l0,0l0,0l-0.2-0.1l0,0l0,0l0,0v-0.1l0,0h-0.1l0,0V480l0,0l0,0l0,0v-0.1l0,0l0,0l0,0l0,0l0,0l0,0l0,0v-0.2l0,0
	l0,0l0,0l0,0h0.1l0,0l0,0v-0.1l0,0c0.3-0.2,0.7-0.2,1.1,0C414.4,480,414,480.6,413.5,480.6z"/>
<path id="path16892" fill="#007AC2" d="M418.6,497.1h0.1l0,0l0,0l0,0l0,0l0,0h0.1l0,0l0,0l0,0h0.1l0,0l0,0l0,0l0,0h0.1l0,0l0,0l0,0
	l0,0l0,0l0,0l0,0l0,0v0.1l0,0l0,0h0.2l0,0l0,0l0,0h-0.2v0.2l0,0l0,0l0,0l0,0v0.1l0,0l0,0v0.1l0,0v0.1l0,0h-0.1l0,0l0,0v0.1l0,0l0,0
	l0,0l0,0l0,0l0,0l0.1,0.1l0,0l0,0l0,0l0,0l0,0c-0.6,0.1-1-0.1-1-0.4C418.2,497.4,418.5,497.1,418.6,497.1z"/>
<path id="path16894" fill="#007AC2" d="M426,494.7h0.1l0,0h0.1l0,0h0.1l0,0h0.2l0,0l0,0h0.2l0,0l0,0l0,0l0,0h0.1l0,0l0,0l0,0l0,0
	h0.1l0,0v0.1l0,0l0,0l0,0c0.4,0.4,0,0.8-0.5,0.4C426.4,495.3,426.1,495,426,494.7z"/>
<path id="path16896" fill="#007AC2" d="M426.6,497.9h0.2l0,0l0,0l0,0h0.1l0,0h0.1l0,0h0.1l0,0h0.1l0,0l0,0l0,0h0.1l0,0l0,0l0,0h0.1
	l0,0l0,0l0,0l0,0l0,0l0,0h0.1c0.3,0.4,0,0.8-0.6,0.4C427,498.3,426.9,498,426.6,497.9z"/>
<path id="path16898" fill="#007AC2" d="M426.7,502.1L426.7,502.1L426.7,502.1h0.1l0,0l0,0h0.1h0.1l0,0h0.1l0,0v-0.2l0,0h0.1l0,0l0,0
	l0,0l0,0l0.1,0.2l0,0l0,0l0,0l0,0l0,0h0.1l0,0l0,0l0,0c0.4,0.4,0,0.7-0.4,0.4C427,502.5,426.9,502.2,426.7,502.1z"/>
<path id="path16900" fill="#007AC2" d="M415.3,496.1L415.3,496.1L415.3,496.1L415.3,496.1h0.1l0,0h0.1l0,0h0.1l0,0h0.1l0,0l0,0l0,0
	h0.1l0,0l0,0l0,0h0.1l0,0l0,0l0,0l0,0l0,0h0.2l0,0l0,0c0.3,0.5,0,0.8-0.5,0.6C415.6,496.5,415.5,496.4,415.3,496.1z"/>
<path id="path16902" fill="#007AC2" d="M418.9,488.9h0.1l0,0l0,0l0,0h0.1l0,0h0.2l0,0h0.1l0,0l0,0h0.2l0,0l0,0l0,0h0.2l0,0l0,0l0,0
	l0,0h0.1l0,0l0,0l0,0l0,0l0,0c0.4,0.4,0,0.7-0.5,0.4C419.2,489.3,419.1,489,418.9,488.9z"/>
<path id="path16904" fill="#007AC2" d="M411.6,500.9L411.6,500.9L411.6,500.9L411.6,500.9h0.2l0,0l0,0l0,0l0,0l0,0h0.1l0,0l0,0l0,0
	h0.1l0,0l0,0l0,0l0,0l0,0l0,0h0.2l0,0l0,0l0,0l0,0l0,0l0,0v0.1l0,0l0,0l0,0l0,0l0,0l0,0v0.2l0,0l0,0l0,0v0.1l0,0H412v0.1l0,0l0,0
	v0.2l0,0l0,0l0,0v0.1l0,0l0,0l0,0l0,0l0,0l0,0v0.1l0,0l0,0l0,0h0.2l0,0c-0.6,0.2-1-0.1-1.2-0.5C411,501.2,411.3,500.9,411.6,500.9z"
	/>
<path id="path16906" fill="#007AC2" d="M409,487L409,487L409,487h0.1l0,0l0,0l0,0l0,0l0,0h0.1l0,0l0,0l0,0l0,0h0.1l0,0l0,0l0,0l0,0
	l0,0h0.2l0,0l0,0l0,0l0,0l0,0v0.2l0,0l0,0l0,0l0,0l0,0l0,0v0.1l0,0l0,0l0,0l0,0l0,0v0.1l0,0l-0.2,0.2l0,0l0,0v0.1l0,0l0,0l0,0v0.1
	l0,0l0,0l0,0l0,0l0,0l0,0v0.2l0,0l0,0l0,0l0,0l0,0h0.2c-0.6,0.1-1.1,0-1.2-0.6C408.4,487.4,408.7,487.2,409,487z"/>
<path id="path16908" fill="#007AC2" d="M411.1,486h0.1l0,0l0,0l0,0l0,0h0.2l0,0l0,0l0,0l0,0h0.2l0,0l0,0l0,0h0.2l0,0l0,0l0,0l0,0
	l0,0l0,0l0,0h0.1v0.1l0,0l0,0l0,0l0,0l0,0l0,0v0.1l0,0l0,0l0,0l0,0l0,0v0.1h-0.1l0,0v0.1l0,0l0,0v0.1l0,0l0,0v0.2l0,0l0,0l0,0l0,0
	l0,0l0,0v0.1l0,0l0,0l0,0l0,0l0,0l0,0c-0.6,0.2-0.9-0.1-1.1-0.6C410.7,486.4,411,486,411.1,486z"/>
<path id="path16910" fill="#007AC2" d="M419.5,473.3L419.5,473.3L419.5,473.3L419.5,473.3h0.2l0,0v-0.2l0,0h0.2l0,0l0,0l0,0h0.1l0,0
	l0,0l0,0v0.2h0.1l0,0l0,0l0,0l0,0l0,0l0,0l0,0l0,0v0.2l0,0l0,0l0,0l0,0l0,0l0,0v0.1l0,0l0,0l0,0v0.1l0,0l0,0v0.2l0,0L420,474l0,0
	l0,0l0,0l0,0v0.1l0,0l0,0l0,0l0,0l0,0l0,0v0.1l0,0h0.1l0,0l0,0l0,0c-0.6,0.1-1.1-0.1-1.1-0.6C418.9,473.6,419.2,473.3,419.5,473.3z"
	/>
<path id="path16912" fill="#007AC2" d="M418.9,472.8h0.1v-0.1l0,0l0,0l0,0l0,0h0.1l0,0l0,0l0,0l0,0h0.2l0,0l0,0l0,0l0,0h0.1l0,0l0,0
	l0,0l0,0l0,0v0.1l0,0l0,0l0,0l0,0l0,0l0,0l0,0v0.1l0,0l0,0l0,0l0,0l0,0l0,0v0.2l0,0v0.2l0,0l0,0v0.2l0,0h-0.1l0,0v0.1l0,0l0,0l0,0
	l0,0l0,0v0.1l0,0l0,0l0,0h0.1l0,0l0,0v0.2l0,0c-0.6,0.1-1-0.2-1-0.6C418.5,473.1,418.8,472.8,418.9,472.8z"/>
<path id="path16914" fill="#007AC2" d="M417.3,491.1L417.3,491.1L417.3,491.1h-0.1l0,0l0,0l0,0l0,0l0,0l0,0l0,0l0,0l0,0l0,0l0,0H417
	v-0.1l0,0l0,0l0,0l0,0l0,0l0,0h-0.1v-0.2l0,0l0,0l0,0l0,0l0,0l0,0l0,0v-0.1l0,0l0,0l0,0l0,0l0,0l0,0l0,0l0,0c0-0.4,0.6-0.9,0.9-0.4
	C418.2,490.5,417.7,491.1,417.3,491.1z"/>
<path id="path16916" fill="#007AC2" d="M400.9,503.7L400.9,503.7L400.9,503.7L400.9,503.7L400.9,503.7L400.9,503.7L400.9,503.7
	L400.9,503.7L400.9,503.7L400.9,503.7L400.9,503.7L400.9,503.7L400.9,503.7h-0.2l0,0v-0.1l0,0l0,0l0,0l0,0h-0.1l0,0l0,0l0,0v-0.1
	l0,0l0,0l0,0l0,0h-0.2l0,0v-0.1l0,0l0,0l0,0l0,0l0,0l0,0l0,0l0,0l0,0l0,0l0,0c0.2-0.5,0.7-0.9,1.1-0.5
	C401.8,503.1,401.5,503.6,400.9,503.7z"/>
<path id="path16918" fill="#007AC2" d="M403.9,504L403.9,504L403.9,504L403.9,504h-0.2l0,0l0,0v-0.1l0,0l0,0h-0.1l0,0l0,0l0,0l0,0
	l0,0v-0.1l0,0h-0.2l0,0l0,0l0,0l0,0l0,0v-0.1l0,0l0,0l0,0l0,0l0,0l0,0l0,0l0,0h-0.1c0.4-0.9,1-0.9,1.6,0
	C404.7,503.7,404.2,504,403.9,504z"/>
<path id="path16920" fill="#007AC2" d="M427.8,508.2L427.8,508.2h-0.1l0,0l0,0l0,0l0,0l0,0l0,0l0,0l0,0l0,0l0,0h-0.1l0,0l0,0v-0.2
	l0,0l0,0l0,0h-0.1l0,0l0,0v-0.2l0,0l0,0l0,0l0,0l0,0l0,0h-0.1l0,0l0,0l0,0l0,0v-0.2l0,0l0,0l0,0l0,0l0,0l0,0l0,0l0,0l0,0
	c0.4-0.9,1.2-0.9,1.7,0C428.5,507.9,428.1,508.2,427.8,508.2z"/>
<path id="path16922" fill="#007AC2" d="M426.6,501.4L426.6,501.4L426.6,501.4L426.6,501.4h0.2l0,0h0.1l0,0h0.1l0,0h0.1l0,0l0,0l0,0
	l0,0h0.1l0,0l0,0l0,0h0.1l0,0l0,0l0,0v0.2l0,0h0.1l0,0c0.3,0.3,0,0.6-0.6,0.5C426.9,501.9,426.7,501.7,426.6,501.4z"/>
<path id="path16924" fill="#007AC2" d="M432.3,516.1L432.3,516.1h-0.1l0,0l0,0l0,0l0,0l0,0l0,0l0,0l0,0l0,0l0,0L432,516l0,0l0,0l0,0
	l0,0l0,0l0,0h-0.2v-0.2l0,0l0,0l0,0l0,0l0,0l0,0l0,0v-0.1l0,0l0,0l0,0l0,0l0,0h-0.1l0,0l0,0l0,0l0,0l0,0l0,0l0,0l0,0h0.1
	c0.3-0.9,1.1-0.9,1.5,0C433,515.8,432.6,516.1,432.3,516.1z"/>
<path id="path16926" fill="#007AC2" d="M423.9,507.9L423.9,507.9L423.9,507.9L423.9,507.9h0.1l0,0l0,0l0,0h0.1l0,0l0,0h0.2l0,0l0,0
	h0.2l0,0h0.1l0,0h0.1l0,0h0.1l0,0c-0.1,0.6,0.2,0.9,0.6,1.2c-0.8-0.1-1.8,0.5-2.3-0.6C423.3,508.4,423.6,508.1,423.9,507.9z"/>
<path id="path16928" fill="#007AC2" d="M433.2,523.3L433.2,523.3L433.2,523.3L433.2,523.3L433.2,523.3L433.2,523.3L433.2,523.3
	L433.2,523.3L433.2,523.3L433.2,523.3v-0.1H433l0,0l0,0l0,0l0,0l0,0l0,0h-0.1v-0.2l0,0l0,0l0,0l0,0l0,0v-0.1h-0.2l0,0l0,0l0,0l0,0
	l0,0l0,0l0,0l0,0v-0.2l0,0l0,0l0,0l0,0l0,0l0,0l0,0c0.3-0.9,1-0.7,1.7,0C433.9,522.9,433.6,523.3,433.2,523.3z"/>
<path id="path16930" fill="#007AC2" d="M436.9,524.9L436.9,524.9L436.9,524.9L436.9,524.9L436.9,524.9L436.9,524.9L436.9,524.9
	L436.9,524.9L436.9,524.9h-0.2v-0.2l0,0l0,0l0,0l0,0l0,0h-0.1l0,0l0,0v-0.1l0,0l0,0l0,0l0,0h-0.2l0,0l0,0v-0.1l0,0l0,0l0,0l0,0l0,0
	l0,0l0,0l0,0l0,0l0,0l0,0l0,0l0,0c0.3-0.9,1.1-0.9,1.7-0.2C437.7,524.6,437.4,524.9,436.9,524.9z"/>
<path id="path16932" fill="#007AC2" d="M436,518.6L436,518.6h-0.2l0,0l0,0l0,0l0,0l0,0l0,0l0,0l0,0l0,0l0,0l-0.1-0.1l0,0l0,0l0,0
	l0,0l0,0l0,0h-0.2v-0.2l0,0l0,0l0,0l0,0l0,0l0,0l0,0v-0.2l0,0l0,0l0,0l0,0l0,0h-0.1l0,0l0,0l0,0l0,0l0,0l0,0l0,0l0,0h0.1
	c0.3-0.9,1.1-0.9,1.5,0C436.8,518.3,436.3,518.6,436,518.6z"/>
<path id="path16934" fill="#007AC2" d="M407.8,489.7c0.1,0.3,0.3,0.9,0,1.1"/>
<path id="path16936" fill="#007AC2" d="M414.9,483.5L414.9,483.5L414.9,483.5h-0.2l0,0l0,0l0,0h-0.2v-0.2l0,0l0,0l0,0h-0.1l0,0v-0.1
	l0,0l0,0h-0.2V483l0,0l0,0l0,0v-0.1l0,0l0,0l0,0l0,0v-0.1l0,0l0,0l0,0l0,0l0,0l0,0v-0.1l0,0l0,0l0,0l0,0l0,0l0,0l0,0v-0.1
	c0.3-0.1,0.9-0.1,1.1,0C415.6,482.8,415.2,483.5,414.9,483.5z"/>
<path id="path16938" fill="#007AC2" d="M418.9,476.1h-0.1l0,0l0,0l0,0l0,0l0,0l0,0h-0.1V476l0,0l0,0l0,0h-0.1l0,0v-0.2l0,0l0,0h-0.2
	v-0.1l0,0l0,0l0,0v-0.2l0,0l0,0l0,0v-0.1l0,0l0,0l0,0l0,0l0,0l0,0l0,0v-0.1l0,0l0,0l0,0l0,0l0,0l0,0l0,0v-0.1l0,0l0,0
	c0.3-0.1,0.9-0.1,1.1,0C419.7,475.5,419.2,476.1,418.9,476.1z"/>
<path id="path16940" fill="#007AC2" d="M425.7,490.7L425.7,490.7L425.7,490.7L425.7,490.7h-0.2l0,0l0,0l0,0h-0.1l0,0l0,0l0,0h-0.2
	v-0.2l0,0l0,0l0,0l-0.1-0.1l0,0l0,0l0,0l0,0v-0.1l0,0l0,0l0,0l0,0l0,0l0,0V490l0,0l0,0l0,0l0,0l0,0l0,0l0,0v-0.1l0,0l0,0l0,0l0,0
	l0,0l0,0l0,0l0.1-0.2l0,0l0,0c0.2-0.1,0.8-0.1,0.9,0C426.6,490.2,426.1,490.7,425.7,490.7z"/>
<path id="path16942" fill="#007AC2" d="M427.6,504.3L427.6,504.3L427.6,504.3L427.6,504.3L427.6,504.3L427.6,504.3h-0.1l0,0l0,0l0,0
	h-0.1v-0.1l0,0l0,0h-0.1l0,0V504l0,0l0,0l0,0l-0.1-0.1l0,0l0,0l0,0v-0.1l0,0l0,0l0,0l0,0l0,0v-0.1l0,0l0,0l0,0l0,0l0,0l0,0v-0.1l0,0
	l0,0l0,0l0,0l0,0l0,0h0.1v-0.1c0.1-0.2,0.7-0.2,0.9,0C428.5,503.7,428.1,504.3,427.6,504.3z"/>
<path id="path16944" fill="#007AC2" d="M430.3,512.9L430.3,512.9L430.3,512.9L430.3,512.9L430.3,512.9L430.3,512.9L430.3,512.9h-0.1
	l0,0l0,0l0,0l-0.1-0.1l0,0l0,0l0,0l0,0l-0.1-0.2l0,0l0,0l0,0v-0.1l0,0h-0.2l0,0v-0.2l0,0l0,0l0,0l0,0v-0.2l0,0l0,0l0,0l0,0l0,0l0,0
	V512l0,0l0,0h0.2l0,0l0,0l0,0l0,0v-0.1c0.3-0.2,0.7-0.2,1,0C431.2,512.2,430.8,512.9,430.3,512.9z"/>
<path id="path16946" fill="#007AC2" d="M421.5,512L421.5,512L421.5,512h-0.2l0,0l0,0h-0.1l0,0v-0.1l0,0H421l0,0l0,0l0,0v-0.2h-0.1
	l0,0l0,0v-0.1l0,0l0,0l0,0v-0.1h-0.2l0,0l0,0v-0.1l0,0l0,0l0,0l0,0l0,0l0,0l0.2-0.2l0,0l0,0l0,0l0,0l0,0l0,0v-0.1l0,0l0,0
	c0.1-0.1,0.9-0.1,1,0C422.2,511.4,421.8,512,421.5,512z"/>
<path id="path16948" fill="#007AC2" d="M423,513L423,513L423,513L423,513h-0.1l0,0l0,0l0,0l0,0l0,0h-0.2l0,0v-0.1l0,0h-0.1l0,0l0,0
	l0,0v-0.1l0,0h-0.1l0,0v-0.2l0,0l0,0l0,0v-0.1l0,0l0,0l0,0l0,0l0,0l0,0l0,0v-0.2l0,0l0,0l0,0l0,0l0,0l0,0l0,0l0.1-0.2l0,0l0,0l0,0
	c0.1-0.1,0.7-0.1,0.9,0C423.9,512.4,423.4,513,423,513z"/>
<path id="path16950" fill="#007AC2" d="M425.8,513L425.8,513L425.8,513L425.8,513L425.8,513L425.8,513h-0.1l0,0l0,0l0,0h-0.2v-0.1
	l0,0l0,0l0,0h-0.1l0,0v-0.1l0,0l0,0l0,0l-0.2-0.2l0,0l0,0l0,0v-0.1l0,0l0,0l0,0l0,0l0,0l0,0l0,0v-0.2l0,0l0,0l0,0l0,0l0,0l0,0h0.2
	v-0.2l0,0l0,0l0,0c0.1-0.1,0.7-0.1,1,0C426.7,512.4,426.3,513,425.8,513z"/>
<path id="path16952" fill="#007AC2" d="M426.1,521.1L426.1,521.1L426.1,521.1L426.1,521.1L426.1,521.1H426l0,0l0,0l0,0V521h-0.1l0,0
	l0,0l0,0l0,0l-0.1-0.1l0,0l0,0l0,0v-0.2l0,0h-0.2l0,0v-0.1l0,0l0,0l0,0v-0.2l0,0l0,0l0,0l0,0l0,0l0,0l0,0v-0.1l0,0l0,0l0,0l0,0l0,0
	h0.2l0,0V520l0,0l0,0c0.1-0.1,0.7-0.1,0.9,0C427,520.5,426.6,521.1,426.1,521.1z"/>
<path id="path16954" fill="#007AC2" d="M428.8,520.2L428.8,520.2L428.8,520.2L428.8,520.2h-0.2l0,0l0,0l0,0l-0.1-0.2l0,0l0,0l0,0
	l0,0h-0.1v-0.1l0,0l0,0l0,0v-0.2h-0.2l0,0l0,0v-0.2l0,0l0,0l0,0l0,0v-0.1l0,0l0,0l0,0l0,0l0,0l0,0v-0.2l0,0l0,0l0,0h0.2l0,0l0,0
	v-0.1l0,0c0.1-0.2,0.7-0.2,0.9,0C429.7,519.6,429.3,520.2,428.8,520.2z"/>
<path id="path16956" fill="#007AC2" d="M419.9,524.9L419.9,524.9L419.9,524.9h0.1l0,0l0,0h0.1l0,0h0.1l0,0h0.1l0,0l0,0h0.1l0,0l0,0
	l0,0l0,0h0.2l0,0l0,0l0,0l0,0h0.2l0,0l0,0l0,0c0.4,0.4,0,0.7-0.5,0.4C420.1,525.3,420,525,419.9,524.9z"/>
<path id="path16958" fill="#007AC2" d="M416.1,521L416.1,521h0.1l0,0h0.2l0,0h0.1l0,0h0.1l0,0l0,0l0,0h0.2l0,0l0,0l0,0l0,0h0.1l0,0
	l0,0l0,0l0,0l0.1,0.1l0,0l0,0l0,0c0.4,0.3,0,0.8-0.5,0.5C416.4,521.4,416.2,521.3,416.1,521z"/>
<path id="path16960" fill="#007AC2" d="M416.2,515.7L416.2,515.7h0.2l0,0h0.1l0,0h0.1l0,0h0.2l0,0l0,0l0,0h0.1l0,0l0,0l0,0h0.1l0,0
	l0,0l0,0l0,0h0.1l0,0l0,0l0,0c0.3,0.4,0,0.8-0.4,0.4C416.5,516.1,416.4,515.8,416.2,515.7z"/>
<path id="path16962" fill="#007AC2" d="M404.1,506.4L404.1,506.4h0.2l0,0h0.1l0,0h0.1l0,0h0.2l0,0l0,0l0,0h0.1l0,0l0,0l0,0l0,0h0.1
	l0,0l0,0l0,0v0.1l0,0h0.1l0,0l0,0c0.4,0.3,0,0.6-0.4,0.4C404.4,506.9,404.2,506.7,404.1,506.4z"/>
<path id="path16964" fill="#007AC2" d="M433.2,517.8L433.2,517.8L433.2,517.8h0.1l0,0l0,0l0,0l0.1-0.2l0,0h0.1l0,0h0.1l0,0l0,0h0.1
	l0,0l0,0l0,0l0,0h0.1l0,0v0.2l0,0l0,0h0.2l0,0l0,0l0,0c0.3,0.5,0,0.8-0.5,0.5C433.5,518.3,433.3,518,433.2,517.8z"/>
<path id="path16966" fill="#604C3B" d="M178.4,149.6h3.4c2.1,5.5,6.9,10.6,14.6,10.6c3.1,0,6.2-2.3,6.2-5.1c0-2.1-2.4-4.2-5.1-4.5
	l-4.4-0.7c-4.2-0.6-6.3-1.1-9.8-3.1c-3-1.6-4.9-4.8-4.9-7.8c0-6.9,7.1-10.5,15.1-10.5c3.6,0,7.7,0.9,10.6,2.5l2.4-2.1h2.4l0.2,11.4
	h-3.2c-2.1-5.7-5.5-9.3-12.6-9.3c-3.1,0-6.2,2.1-6.2,4.7c0,2.5,3,3.9,5.9,4.3l3,0.5c8.3,1.5,15.4,3.7,15.4,11.7c0,3.2-1.8,6-4.8,8.1
	c-2.9,1.8-6.8,2.4-10.4,2.4c-4.2,0-8.7-1-12-3.1l-3,2.8h-2.4L178.4,149.6z"/>
<path id="path16968" fill="#604C3B" d="M316.8,120v-2.4h2.7c2.4-0.3,2.3-1.3,2.3-3.1V92.6c0-0.5,0-1.1-0.2-1.5
	c-0.1-0.6-0.1-0.9-0.9-1c-0.9-0.3-1.4-0.3-2.3-0.3h-1.6v-2.4h20.8v2.4H336c-1.2,0-1.9-0.1-2.9,0.6c-0.3,0.3-0.3,0.6-0.4,0.9
	c0,0.4,0,0.9,0,1.5v22.5c0,0.7,0,1.8,0.9,2.1c0.3,0.1,0.6,0,0.9,0.1c0.7,0.1,1.1,0.1,1.9,0.1h1.2v2.4H316.8z"/>
<path id="path16970" fill="#604C3B" d="M414.3,120v-2.4c1.4,0,2.3-0.1,3.6-0.3c1.2,0,1.2-1.3,1.2-2.1V93.8c0-3.9,0.3-3.9-4-4.1h-0.8
	v-2.4h20.4v2.4h-2.1c-2.4,0-2.5,0.6-2.5,2.4v22.4c0.1,1.8,0,2.7,2.2,2.9c1.2,0.3,1.2,0.3,2.4,0.3c5.4,0,8.2-3.7,9.8-9.9h2.7
	l-0.6,12.3H414.3z"/>
<path id="path16972" fill="#604C3B" d="M449.4,120v-2.4h2.7c2.4-0.3,2.1-1.3,2.1-3.1V92.6c0-0.5,0-1.1,0-1.5c-0.3-0.6-0.3-0.9-1.1-1
	c-0.7-0.3-1.4-0.3-2.2-0.3h-1.5v-2.4h20.7v2.4h-1.6c-1,0-1.9-0.1-2.7,0.6c-0.3,0.3-0.3,0.6-0.4,0.9c-0.1,0.4-0.1,0.9-0.1,1.5v22.5
	c0,0.7,0,1.8,1.1,2.1c0.3,0.1,0.4,0,0.7,0.1c0.8,0.1,1.1,0.1,2,0.1h1.2v2.4H449.4z"/>
<path id="path16974" fill="#604C3B" d="M471.9,120v-2.4h2.7c0.5,0,0.9,0,1.3-0.3c0.3,0,0.5-0.2,0.6-0.3c0,0,0.2-0.2,0.3-0.4
	c0.2-0.6,0.2-1.3,0.2-2V92.1c0-0.7,0-1.8-1.2-2.1c-0.9-0.3-1.5-0.3-2.4-0.3H472v-2.4h35.4l0.5,11.9h-2.7c-1.8-6-4.8-9.5-12.3-9.5
	c-1.5,0-3.2,0-4.4,0.7c-0.8,0.5-0.8,1.5-0.8,2.3v9.3c5.6,0.2,7.2-1.8,8.3-6.3h2.7v15.2H496c0-1.2-0.3-1.8-0.9-2.9
	c-1.1-1.9-3.3-3-6.8-3h-0.6v9.4c0,2.4,0,2.9,3,3l2.7,0.1v2.4H471.9z"/>
<path id="path16976" fill="#604C3B" d="M391,161.8v-2.5c1.3,0,4.4,0.6,4.8-1c0.1-0.5,0.1-1.1,0.1-1.7v-23.1c0-0.3,0-0.6-0.1-0.9
	c-0.1-0.6-0.5-0.7-1.1-0.7c-1.3-0.3-2.2-0.3-3.7-0.3v-2.4H426l0.4,11.7h-2.7c-2.1-6.6-3.6-9.3-12-9.3c-1.2,0-2.6,0-3.6,0.4
	c-0.5,0.3-0.7,0.4-0.9,0.9c-0.4,0.7-0.3,1.5-0.3,2.4v8.4c5.1,0.4,7.6-2.1,8.3-6.3h2.7L418,153h-2.9c-0.1-4.4-3-7.1-8.3-6.9v9.9
	c0,2.1-0.1,3,2.4,3.2c1.1,0.1,1.9,0.1,2.9,0.1c8.2,0,9.9-3.2,12.1-9.6l2.6,0.1l-0.5,12H391z"/>
<path id="path16978" fill="#604C3B" d="M212.4,161.8v-2.5c1.3,0,4.2,0.6,4.6-1c0.3-0.5,0.1-1.1,0.1-1.7v-23.1c0-0.3,0.2-0.6-0.1-0.9
	c-0.2-0.6-0.5-0.7-0.9-0.7c-1.5-0.3-2.4-0.3-3.7-0.3v-2.4h34.9l0.3,11.7h-2.6c-2.2-6.6-3.7-9.3-12-9.3c-1.4,0-2.5,0-3.7,0.4
	c-0.3,0.3-0.7,0.4-0.9,0.9c-0.3,0.7-0.3,1.5-0.3,2.4v8.4c5.3,0.4,7.6-2.1,8.3-6.3h2.7l0.2,15.6h-2.7c-0.3-4.4-3.1-7.1-8.4-6.9v9.9
	c0,2.1,0,3,2.5,3.2c0.9,0.1,1.8,0.1,2.7,0.1c8.2,0,10-3.2,12.3-9.6l2.5,0.1l-0.6,12H212.4z"/>
<path id="path16980" fill="#604C3B" d="M347.7,66.3h0.3h0.3l0.3,0.1h0.3h0.3l0.3,0.2l0.3,0.2h0.3l0.3,0.2l0.3,0.1l0.3,0.2l0.1,0.1
	l0.3,0.2l0.3,0.2l0.2,0.3l0.3,0.2l0.2,0.2l0.1,0.3l0.3,0.2l0.2,0.3l0.2,0.1l0.1,0.3l0.2,0.3l0.2,0.2l0.1,0.3v0.3l0.1,0.3V71l0.1,0.3
	v0.3v0.3v0.3c0,3.1-2.9,5.8-6.3,5.8c-3.4,0-6.3-2.7-6.3-5.8S344.3,66.3,347.7,66.3z"/>
<path id="path16982" fill="#604C3B" d="M307,64.9h3.3c2.1,5.6,6.9,10.7,14.6,10.7c3.3,0,6.1-2.3,6.1-5.1c0-2.1-2.4-4.2-5-4.6
	l-4.5-0.6c-4.2-0.6-6.1-1-9.7-3.2c-3-1.6-4.8-4.8-4.8-7.8c0-6.9,7-10.5,15-10.5c3.6,0,7.8,0.9,10.8,2.6l2.2-2.1h2.4l0.3,11.4h-3.3
	c-2.1-5.7-5.6-9.3-12.6-9.3c-3,0-6,2.1-6,4.7c0,2.6,2.9,3.9,5.7,4.4l3.2,0.4c8.1,1.3,15.5,3.8,15.5,11.7c0,3-1.8,6-4.8,7.9
	c-3,2-6.9,2.5-10.5,2.5c-4.1,0-8.7-1.2-11.9-3.2l-3,2.9h-2.6L307,64.9z"/>
<path id="path16984" fill="#604C3B" d="M332.1,161.8v-2.5h2.7c2.4-0.1,2.2-1.2,2.2-3v-21.9c0-0.6,0-1.1-0.1-1.5
	c-0.3-0.6-0.3-0.9-0.9-1c-0.9-0.3-1.3-0.3-2.2-0.3h-1.7v-2.4h20.9v2.4h-1.8c-1.1,0-1.8-0.1-2.7,0.6c-0.3,0.1-0.3,0.6-0.4,0.9
	c-0.1,0.3-0.1,0.9-0.1,1.3v22.7c0,0.7,0,1.8,1,2.1c0.3,0.1,0.6,0,0.8,0.1c0.9,0,1.2,0,1.9,0h1.3v2.5H332.1z"/>
<path id="path16998" fill="#604C3B" d="M546.4,183.1v235.1c0,135.4-109.8,245.4-245.4,245.4c-135.4,0-245.3-109.9-245.3-245.4V183.1
	H546.4z M64.6,191.9v226.4c0,130.6,106,236.6,236.5,236.6c130.8,0,236.7-105.9,236.7-236.6V191.9H64.6z"/>
<path id="path17002" fill="#FFFFFF" d="M438.1,387v-0.1v-0.2l0,0v-0.1l0,0v-0.1h0.2v-0.1l0,0v-0.2h0.1v-0.2l0,0l0.1-0.1l0,0l0,0h0.2
	v-0.1l0,0l0,0l0,0h0.2l0,0l0,0l0,0l0,0l0,0h0.1l0,0l0,0l0,0l0,0h0.1l0,0l0,0l0,0l0,0l0,0l0,0h0.2l0,0l0,0l0,0v0.1l0,0l0,0h0.1l0,0
	c1.7,3.5-1.8,18.4-2.4,18.9c-0.7,0.7-3-2.1-3-2.1C436.5,399,437.9,392,438.1,387z"/>
<path id="path17004" fill="#FFFFFF" d="M455.5,434.7v0.4v0.3v0.5v0.6l-0.1,0.6v0.6l-0.3,0.6l-0.1,0.6l-0.3,0.7l-0.1,0.8l-0.4,0.7
	l-0.3,0.8l-0.5,0.8l-0.5,0.7l-0.6,0.9l-0.6,0.8l-0.6,0.8l-0.8,0.8l-0.7,0.6l-0.9,0.8l-0.9,0.6l-0.9,0.8l-1.1,0.4l-0.6,0.3l-0.4,0.3
	l-0.6,0.3l-0.6,0.2l-0.6,0.3l-0.6,0.2l-0.7,0.1l-0.6,0.1l-0.8,0.1l-0.8,0.2l-0.7,0.1l-0.8,0.1h-0.8l-0.8,0.1h-0.7h-0.9h-0.9h-0.7
	c14.8-2.4,19.8-18.1,20.4-22.3C453.6,429.9,455.1,431.6,455.5,434.7z"/>
<path id="path17006" fill="#FFFFFF" d="M411.9,408.3v-0.1V408v-0.1l0.1-0.1v-0.1v-0.1v-0.2l0.2-0.3v-0.1l0.1-0.1l0,0l0.1-0.2
	l0.1-0.1v-0.1l0.2-0.1l0.1-0.1h0.1v-0.2l0.2-0.1l0.1-0.2h0.1l0.1-0.1h0.1l0.2-0.1h0.2h0.1l0.2-0.2h0.1h0.2h0.2h0.3h0.1
	c1.8,0,3.3,1.5,3.3,3.3c0,2-1.5,3.4-3.3,3.4C413.4,411.7,411.9,410.2,411.9,408.3z"/>
</svg>
